####
#
# OBJ File Generated by Meshlab
#
####
# Object background_rough.obj
#
# Vertices: 144
# Faces: 242
#
####
mtllib ./background_rough.obj.mtl

vn 0.3277000 -0.7560000 -0.5666000
v -1.1000000 0.0476070 1.8810000
vn -0.0446000 -0.9920000 0.1183000
v -1.1000000 0.0960750 0.0000000
vn 0.2910000 -0.9324000 -0.2143000
v 1.1000000 0.0592500 1.8810000
vn 0.3595000 -0.7442000 -0.5630000
v 1.1000000 0.1388540 -0.0000000
vn -0.2256000 -0.9364000 0.2690000
v -1.1000000 0.1757730 1.7100000
vn 0.1485000 -0.9887000 0.0218000
v -1.1000000 -0.0207330 1.5390000
vn 0.4173000 -0.8961000 -0.1514000
v -1.1000000 0.0630040 1.3680000
vn 0.5932000 -0.7850000 -0.1787000
v -1.1000000 0.0261400 1.1970000
vn -0.0784000 -0.9949000 0.0639000
v -1.1000000 0.1313240 1.0260000
vn -0.1366000 -0.9468000 0.2915000
v -1.1000000 0.1289120 0.8550000
vn 0.3951000 -0.9186000 0.0046000
v -1.1000000 -0.0503240 0.6840000
vn 0.0520000 -0.9861000 -0.1580000
v -1.1000000 0.0708030 0.5130000
vn -0.0660000 -0.9975000 -0.0246000
v -1.1000000 0.0735800 0.3420000
vn 0.1086000 -0.9866000 -0.1214000
v -1.1000000 0.0731730 0.1710000
vn -0.1348000 -0.9888000 0.0639000
v -0.9000000 0.1074730 0.1710000
vn -0.1897000 -0.9769000 0.0984000
v -0.7000000 0.0589290 0.3420000
vn -0.2510000 -0.9599000 0.1247000
v -0.5000000 0.0356870 0.5130000
vn 0.0339000 -0.9916000 0.1248000
v -0.3000000 -0.0172020 0.6840000
vn 0.1293000 -0.9874000 -0.0909000
v -0.1000000 0.0048800 0.8550000
vn 0.1093000 -0.9694000 -0.2199000
v 0.1000000 0.0106240 1.0260000
vn 0.1479000 -0.9881000 -0.0433000
v 0.3000000 0.0252060 1.1970000
vn 0.0069000 -0.9994000 -0.0347000
v 0.5000000 0.0514900 1.3680000
vn 0.0436000 -0.9990000 0.0094000
v 0.7000000 0.0512770 1.5390000
vn 0.1114000 -0.9910000 -0.0736000
v 0.9000000 0.0361310 1.7100000
vn -0.3084000 -0.9424000 0.1295000
v -0.9000000 0.1343080 1.8810000
vn -0.2070000 -0.9490000 -0.2379000
v -0.7000000 0.0144800 1.8810000
vn 0.0513000 -0.9396000 -0.3384000
v -0.5000000 -0.0379030 1.8810000
vn -0.0341000 -0.9786000 -0.2030000
v -0.3000000 0.0501990 1.8810000
vn -0.2078000 -0.9753000 -0.0745000
v -0.1000000 -0.0370250 1.8810000
vn 0.3289000 -0.7577000 -0.5636000
v 0.1000000 -0.0298060 1.8810000
vn 0.0364000 -0.8127000 -0.5815000
v 0.3000000 0.0517990 1.8810000
vn -0.2973000 -0.9431000 -0.1488000
v 0.5000000 0.0295340 1.8810000
vn 0.1405000 -0.9018000 -0.4086000
v 0.7000000 -0.0217300 1.8810000
vn 0.0424000 -0.9961000 -0.0771000
v 0.9000000 0.0482260 1.8810000
vn -0.1458000 -0.9796000 0.1384000
v -0.9000000 0.0329260 0.0000000
vn 0.1374000 -0.8073000 -0.5739000
v -0.7000000 0.1528040 0.0000000
vn -0.1147000 -0.9721000 -0.2044000
v -0.5000000 0.0914470 0.0000000
vn -0.2601000 -0.8507000 0.4567000
v -0.3000000 0.0084240 0.0000000
vn 0.0230000 -0.9259000 0.3771000
v -0.1000000 -0.0181040 0.0000000
vn 0.1604000 -0.8921000 0.4224000
v 0.1000000 0.0125240 -0.0000000
vn 0.0765000 -0.9507000 0.3007000
v 0.3000000 0.0503810 -0.0000000
vn 0.1262000 -0.9505000 -0.2841000
v 0.5000000 0.1210670 -0.0000000
vn -0.0977000 -0.9863000 -0.1327000
v 0.7000000 0.0993330 -0.0000000
vn -0.1230000 -0.9921000 -0.0239000
v 0.9000000 0.0422470 -0.0000000
vn 0.3683000 -0.9170000 -0.1536000
v 1.1000000 0.1433670 1.7100000
vn 0.0765000 -0.9850000 0.1546000
v 1.1000000 0.0911720 1.5390000
vn 0.1679000 -0.9717000 0.1659000
v 1.1000000 0.0783130 1.3680000
vn 0.3251000 -0.9456000 -0.0124000
v 1.1000000 0.0925500 1.1970000
vn -0.5256000 -0.8304000 0.1849000
v 1.1000000 -0.0197650 1.0260000
vn -0.5957000 -0.8030000 0.0166000
v 1.1000000 -0.0366500 0.8550000
vn -0.1405000 -0.9536000 -0.2662000
v 1.1000000 0.0219480 0.6840000
vn 0.1546000 -0.9735000 -0.1685000
v 1.1000000 0.1152460 0.5130000
vn -0.2115000 -0.9448000 0.2504000
v 1.1000000 0.0479870 0.3420000
vn -0.1196000 -0.9923000 -0.0319000
v 1.1000000 0.0094830 0.1710000
vn 0.1562000 -0.9851000 -0.0714000
v 0.9000000 0.0689640 1.5390000
vn 0.0854000 -0.9910000 -0.1034000
v 0.7000000 0.0616240 1.3680000
vn -0.0354000 -0.9788000 0.2018000
v 0.9000000 0.0800370 1.3680000
vn 0.0667000 -0.9972000 0.0338000
v 0.5000000 0.0594460 1.1970000
vn -0.0919000 -0.9933000 0.0694000
v 0.7000000 0.0920370 1.1970000
vn -0.0000000 -1.0000000 0.0061000
v 0.9000000 -0.0412610 1.1970000
vn -0.0314000 -0.9958000 -0.0859000
v 0.3000000 0.0959040 1.0260000
vn 0.0105000 -0.9999000 -0.0107000
v 0.5000000 0.0063670 1.0260000
vn 0.0297000 -0.9956000 -0.0886000
v 0.7000000 0.0775290 1.0260000
vn -0.0359000 -0.9433000 -0.3299000
v 0.9000000 0.0757020 1.0260000
vn 0.0687000 -0.9889000 -0.1314000
v 0.1000000 0.1095440 0.8550000
vn -0.0843000 -0.9962000 -0.0234000
v 0.3000000 0.0524640 0.8550000
vn 0.0424000 -0.9966000 -0.0712000
v 0.5000000 0.0833270 0.8550000
vn 0.1534000 -0.9879000 -0.0231000
v 0.7000000 0.0762040 0.8550000
vn -0.1813000 -0.9830000 -0.0291000
v 0.9000000 0.1530120 0.8550000
vn 0.2013000 -0.9778000 0.0581000
v -0.1000000 0.1225350 0.6840000
vn -0.0586000 -0.9792000 0.1943000
v 0.1000000 0.0628200 0.6840000
vn -0.0136000 -0.9999000 0.0040000
v 0.3000000 0.0956520 0.6840000
vn -0.0455000 -0.9934000 0.1052000
v 0.5000000 0.0300890 0.6840000
vn 0.1400000 -0.9798000 0.1427000
v 0.7000000 0.0818270 0.6840000
vn -0.2091000 -0.9543000 0.2137000
v 0.9000000 0.0827400 0.6840000
vn 0.1115000 -0.9780000 -0.1763000
v -0.3000000 -0.0355520 0.5130000
vn 0.0342000 -0.9974000 0.0633000
v -0.1000000 0.0098330 0.5130000
vn 0.1857000 -0.9754000 -0.1190000
v 0.1000000 0.0409280 0.5130000
vn -0.1207000 -0.9841000 0.1303000
v 0.3000000 0.0725130 0.5130000
vn -0.0326000 -0.9952000 0.0926000
v 0.5000000 0.0387400 0.5130000
vn 0.0929000 -0.9948000 -0.0428000
v 0.7000000 0.0295970 0.5130000
vn 0.0844000 -0.9890000 -0.1216000
v 0.9000000 0.0545680 0.5130000
vn 0.0767000 -0.9965000 -0.0327000
v -0.5000000 0.0007730 0.3420000
vn 0.0851000 -0.9710000 -0.2235000
v -0.3000000 0.1459010 0.3420000
vn -0.0612000 -0.9910000 -0.1192000
v -0.1000000 0.0403990 0.3420000
vn -0.0053000 -0.9976000 -0.0689000
v 0.1000000 0.1200960 0.3420000
vn -0.1585000 -0.9825000 -0.0978000
v 0.3000000 0.0088790 0.3420000
vn 0.1331000 -0.9724000 -0.1915000
v 0.5000000 0.0227370 0.3420000
vn 0.1001000 -0.9910000 -0.0893000
v 0.7000000 0.1208450 0.3420000
vn -0.0800000 -0.9960000 0.0387000
v 0.9000000 0.0844380 0.3420000
vn -0.1310000 -0.9816000 -0.1388000
v -0.7000000 0.0124660 0.1710000
vn 0.2130000 -0.9444000 -0.2503000
v -0.5000000 0.0153130 0.1710000
vn -0.0557000 -0.9714000 0.2307000
v -0.3000000 0.1097250 0.1710000
vn 0.0041000 -0.9773000 0.2118000
v -0.1000000 0.0486470 0.1710000
vn 0.1001000 -0.9769000 0.1887000
v 0.1000000 0.0917500 0.1710000
vn -0.0154000 -0.9989000 -0.0453000
v 0.3000000 0.1372720 0.1710000
vn -0.0213000 -0.9921000 -0.1238000
v 0.5000000 0.0659640 0.1710000
vn -0.0234000 -0.9996000 0.0159000
v 0.7000000 0.0605870 0.1710000
vn -0.1493000 -0.9846000 0.0909000
v 0.9000000 0.0745200 0.1710000
vn -0.1446000 -0.9624000 0.2301000
v -0.9000000 0.0570620 1.7100000
vn 0.1454000 -0.9643000 -0.2212000
v -0.9000000 0.0537930 1.5390000
vn -0.1210000 -0.9921000 -0.0321000
v -0.7000000 0.0894660 1.7100000
vn 0.1032000 -0.9400000 -0.3251000
v -0.9000000 0.1631060 1.3680000
vn -0.1462000 -0.9878000 -0.0530000
v -0.7000000 0.0122040 1.5390000
vn 0.0509000 -0.9926000 -0.1103000
v -0.5000000 0.0195400 1.7100000
vn -0.0542000 -0.9875000 0.1481000
v -0.9000000 0.2071340 1.1970000
vn -0.2052000 -0.9740000 -0.0960000
v -0.7000000 0.0812930 1.3680000
vn 0.1086000 -0.9724000 -0.2065000
v -0.5000000 0.0251440 1.5390000
vn -0.1133000 -0.9935000 0.0095000
v -0.3000000 0.0795720 1.7100000
vn -0.1435000 -0.9889000 0.0379000
v -0.9000000 0.0413990 1.0260000
vn -0.1515000 -0.9863000 0.0644000
v -0.7000000 0.0199060 1.1970000
vn -0.0144000 -0.9998000 -0.0141000
v -0.5000000 0.1103630 1.3680000
vn -0.0966000 -0.9942000 -0.0466000
v -0.3000000 0.0397460 1.5390000
vn 0.0586000 -0.9727000 -0.2246000
v -0.1000000 -0.0279960 1.7100000
vn -0.1004000 -0.9885000 0.1135000
v -0.9000000 0.1288370 0.8550000
vn -0.0646000 -0.9978000 -0.0169000
v -0.7000000 0.1053180 1.0260000
vn 0.1096000 -0.9931000 0.0427000
v -0.5000000 0.0460090 1.1970000
vn 0.0323000 -0.9815000 -0.1886000
v -0.3000000 0.0583050 1.3680000
vn 0.1027000 -0.9714000 -0.2143000
v -0.1000000 0.0316210 1.5390000
vn 0.2703000 -0.9599000 -0.0743000
v 0.1000000 0.1534640 1.7100000
vn 0.1034000 -0.9933000 0.0520000
v -0.9000000 0.0636740 0.6840000
vn -0.0012000 -0.9994000 0.0341000
v -0.7000000 -0.0065830 0.8550000
vn 0.1092000 -0.9889000 -0.1009000
v -0.5000000 0.0465720 1.0260000
vn -0.0023000 -0.9999000 0.0103000
v -0.3000000 0.1245290 1.1970000
vn -0.1548000 -0.9878000 -0.0159000
v -0.1000000 0.1058900 1.3680000
vn -0.0536000 -0.9610000 0.2713000
v 0.1000000 0.0118000 1.5390000
vn -0.1813000 -0.9800000 0.0821000
v 0.3000000 0.1542990 1.7100000
vn -0.0166000 -0.9999000 0.0045000
v -0.9000000 0.0477710 0.5130000
vn 0.0913000 -0.9933000 -0.0714000
v -0.7000000 0.0727690 0.6840000
vn 0.0722000 -0.9972000 -0.0188000
v -0.5000000 0.1457830 0.8550000
vn -0.1063000 -0.9922000 0.0651000
v -0.3000000 0.0825330 1.0260000
vn -0.2578000 -0.9631000 0.0769000
v -0.1000000 0.0066040 1.1970000
vn -0.0327000 -0.9973000 0.0656000
v 0.1000000 0.0156160 1.3680000
vn 0.0042000 -0.9897000 0.1432000
v 0.3000000 0.0345540 1.5390000
vn -0.1510000 -0.9885000 0.0003000
v 0.5000000 0.0356350 1.7100000
vn 0.0061000 -0.9914000 -0.1308000
v -0.9000000 0.0640450 0.3420000
vn -0.0389000 -0.9987000 0.0318000
v -0.7000000 0.0616780 0.5130000
vn -0.2315000 -0.9341000 0.2718000
v -0.5000000 0.0527210 0.6840000
vn -0.2804000 -0.9112000 0.3017000
v -0.3000000 0.0487830 0.8550000
vn -0.1602000 -0.9870000 0.0118000
v -0.1000000 0.0687800 1.0260000
vn 0.0360000 -0.9993000 0.0046000
v 0.1000000 -0.0012560 1.1970000
vn 0.0761000 -0.9969000 0.0193000
v 0.3000000 0.0782610 1.3680000
vn 0.0430000 -0.9981000 -0.0448000
v 0.5000000 0.0316940 1.5390000
vn 0.0507000 -0.9907000 -0.1261000
v 0.7000000 0.0811900 1.7100000
# 144 vertices, 0 vertices normals


usemtl material_0
vt 1.0000000 0.0000000
vt 0.9090910 0.0909090
vt 0.9090910 0.0000000
f 2/1/2 15/2/15 14/3/14
vt 1.0000000 0.0909090
f 2/1/2 35/4/35 15/2/15
vt 0.0909090 0.9090910
vt 0.0909090 1.0000000
vt 0.0000000 1.0000000
f 24/5/24 45/6/45 3/7/3
vt 0.1818180 0.8181820
vt 0.1818180 0.9090910
f 23/8/23 55/9/55 24/5/24
vt 0.2727270 0.7272730
vt 0.2727270 0.8181820
f 22/10/22 56/11/56 23/8/23
vt 0.3636360 0.6363640
vt 0.3636360 0.7272730
f 21/12/21 58/13/58 22/10/22
vt 0.4545450 0.5454550
vt 0.4545450 0.6363640
f 20/14/20 61/15/61 21/12/21
vt 0.5454550 0.4545450
vt 0.5454550 0.5454550
f 19/16/19 65/17/65 20/14/20
vt 0.6363640 0.3636360
vt 0.6363640 0.4545450
f 18/18/18 70/19/70 19/16/19
vt 0.7272730 0.2727270
vt 0.7272730 0.3636360
f 17/20/17 76/21/76 18/18/18
vt 0.8181820 0.1818180
vt 0.8181820 0.2727270
f 16/22/16 83/23/83 17/20/17
vt 0.9090910 0.1818180
f 15/2/15 91/24/91 16/22/16
f 24/5/24 55/9/55 45/6/45
vt 0.1818180 1.0000000
f 55/9/55 46/25/46 45/6/45
f 23/8/23 56/11/56 55/9/55
vt 0.2727270 0.9090910
f 56/11/56 57/26/57 55/9/55
f 55/9/55 57/26/57 46/25/46
vt 0.2727270 1.0000000
f 57/26/57 47/27/47 46/25/46
f 22/10/22 58/13/58 56/11/56
vt 0.3636360 0.8181820
f 58/13/58 59/28/59 56/11/56
f 56/11/56 59/28/59 57/26/57
vt 0.3636360 0.9090910
f 59/28/59 60/29/60 57/26/57
f 57/26/57 60/29/60 47/27/47
vt 0.3636360 1.0000000
f 60/29/60 48/30/48 47/27/47
f 21/12/21 61/15/61 58/13/58
vt 0.4545450 0.7272730
f 61/15/61 62/31/62 58/13/58
f 58/13/58 62/31/62 59/28/59
vt 0.4545450 0.8181820
f 62/31/62 63/32/63 59/28/59
f 59/28/59 63/32/63 60/29/60
vt 0.4545450 0.9090910
f 63/32/63 64/33/64 60/29/60
f 60/29/60 64/33/64 48/30/48
vt 0.4545450 1.0000000
f 64/33/64 49/34/49 48/30/48
f 20/14/20 65/17/65 61/15/61
vt 0.5454550 0.6363640
f 65/17/65 66/35/66 61/15/61
f 61/15/61 66/35/66 62/31/62
vt 0.5454550 0.7272730
f 66/35/66 67/36/67 62/31/62
f 62/31/62 67/36/67 63/32/63
vt 0.5454550 0.8181820
f 67/36/67 68/37/68 63/32/63
f 63/32/63 68/37/68 64/33/64
vt 0.5454550 0.9090910
f 68/37/68 69/38/69 64/33/64
f 64/33/64 69/38/69 49/34/49
vt 0.5454550 1.0000000
f 69/38/69 50/39/50 49/34/49
f 19/16/19 70/19/70 65/17/65
vt 0.6363640 0.5454550
f 70/19/70 71/40/71 65/17/65
f 65/17/65 71/40/71 66/35/66
vt 0.6363640 0.6363640
f 71/40/71 72/41/72 66/35/66
f 66/35/66 72/41/72 67/36/67
vt 0.6363640 0.7272730
f 72/41/72 73/42/73 67/36/67
f 67/36/67 73/42/73 68/37/68
vt 0.6363640 0.8181820
f 73/42/73 74/43/74 68/37/68
f 68/37/68 74/43/74 69/38/69
vt 0.6363640 0.9090910
f 74/43/74 75/44/75 69/38/69
f 69/38/69 75/44/75 50/39/50
vt 0.6363640 1.0000000
f 75/44/75 51/45/51 50/39/50
f 18/18/18 76/21/76 70/19/70
vt 0.7272730 0.4545450
f 76/21/76 77/46/77 70/19/70
f 70/19/70 77/46/77 71/40/71
vt 0.7272730 0.5454550
f 77/46/77 78/47/78 71/40/71
f 71/40/71 78/47/78 72/41/72
vt 0.7272730 0.6363640
f 78/47/78 79/48/79 72/41/72
f 72/41/72 79/48/79 73/42/73
vt 0.7272730 0.7272730
f 79/48/79 80/49/80 73/42/73
f 73/42/73 80/49/80 74/43/74
vt 0.7272730 0.8181820
f 80/49/80 81/50/81 74/43/74
f 74/43/74 81/50/81 75/44/75
vt 0.7272730 0.9090910
f 81/50/81 82/51/82 75/44/75
f 75/44/75 82/51/82 51/45/51
vt 0.7272730 1.0000000
f 82/51/82 52/52/52 51/45/51
f 17/20/17 83/23/83 76/21/76
vt 0.8181820 0.3636360
f 83/23/83 84/53/84 76/21/76
f 76/21/76 84/53/84 77/46/77
vt 0.8181820 0.4545450
f 84/53/84 85/54/85 77/46/77
f 77/46/77 85/54/85 78/47/78
vt 0.8181820 0.5454550
f 85/54/85 86/55/86 78/47/78
f 78/47/78 86/55/86 79/48/79
vt 0.8181820 0.6363640
f 86/55/86 87/56/87 79/48/79
f 79/48/79 87/56/87 80/49/80
vt 0.8181820 0.7272730
f 87/56/87 88/57/88 80/49/80
f 80/49/80 88/57/88 81/50/81
vt 0.8181820 0.8181820
f 88/57/88 89/58/89 81/50/81
f 81/50/81 89/58/89 82/51/82
vt 0.8181820 0.9090910
f 89/58/89 90/59/90 82/51/82
f 82/51/82 90/59/90 52/52/52
vt 0.8181820 1.0000000
f 90/59/90 53/60/53 52/52/52
f 16/22/16 91/24/91 83/23/83
vt 0.9090910 0.2727270
f 91/24/91 92/61/92 83/23/83
f 83/23/83 92/61/92 84/53/84
vt 0.9090910 0.3636360
f 92/61/92 93/62/93 84/53/84
f 84/53/84 93/62/93 85/54/85
vt 0.9090910 0.4545450
f 93/62/93 94/63/94 85/54/85
f 85/54/85 94/63/94 86/55/86
vt 0.9090910 0.5454550
f 94/63/94 95/64/95 86/55/86
f 86/55/86 95/64/95 87/56/87
vt 0.9090910 0.6363640
f 95/64/95 96/65/96 87/56/87
f 87/56/87 96/65/96 88/57/88
vt 0.9090910 0.7272730
f 96/65/96 97/66/97 88/57/88
f 88/57/88 97/66/97 89/58/89
vt 0.9090910 0.8181820
f 97/66/97 98/67/98 89/58/89
f 89/58/89 98/67/98 90/59/90
vt 0.9090910 0.9090910
f 98/67/98 99/68/99 90/59/90
f 90/59/90 99/68/99 53/60/53
vt 0.9090910 1.0000000
f 99/68/99 54/69/54 53/60/53
f 15/2/15 35/4/35 91/24/91
vt 1.0000000 0.1818180
f 35/4/35 36/70/36 91/24/91
f 91/24/91 36/70/36 92/61/92
vt 1.0000000 0.2727270
f 36/70/36 37/71/37 92/61/92
f 92/61/92 37/71/37 93/62/93
vt 1.0000000 0.3636360
f 37/71/37 38/72/38 93/62/93
f 93/62/93 38/72/38 94/63/94
vt 1.0000000 0.4545450
f 38/72/38 39/73/39 94/63/94
f 94/63/94 39/73/39 95/64/95
vt 1.0000000 0.5454550
f 39/73/39 40/74/40 95/64/95
f 95/64/95 40/74/40 96/65/96
vt 1.0000000 0.6363640
f 40/74/40 41/75/41 96/65/96
f 96/65/96 41/75/41 97/66/97
vt 1.0000000 0.7272730
f 41/75/41 42/76/42 97/66/97
f 97/66/97 42/76/42 98/67/98
vt 1.0000000 0.8181820
f 42/76/42 43/77/43 98/67/98
f 98/67/98 43/77/43 99/68/99
vt 1.0000000 0.9090910
f 43/77/43 44/78/44 99/68/99
f 99/68/99 44/78/44 54/69/54
vt 1.0000000 1.0000000
f 44/78/44 4/79/4 54/69/54
vt 0.0909090 0.0000000
vt 0.0000000 0.0909090
vt 0.0000000 0.0000000
f 5/80/5 25/81/25 1/82/1
vt 0.1818180 0.0000000
vt 0.0909090 0.0909090
f 6/83/6 100/84/100 5/80/5
vt 0.2727270 0.0000000
vt 0.1818180 0.0909090
f 7/85/7 101/86/101 6/83/6
vt 0.3636360 0.0000000
vt 0.2727270 0.0909090
f 8/87/8 103/88/103 7/85/7
vt 0.4545450 0.0000000
vt 0.3636360 0.0909090
f 9/89/9 106/90/106 8/87/8
vt 0.5454550 0.0000000
vt 0.4545450 0.0909090
f 10/91/10 110/92/110 9/89/9
vt 0.6363640 0.0000000
vt 0.5454550 0.0909090
f 11/93/11 115/94/115 10/91/10
vt 0.7272730 0.0000000
vt 0.6363640 0.0909090
f 12/95/12 121/96/121 11/93/11
vt 0.8181820 0.0000000
vt 0.7272730 0.0909090
f 13/97/13 128/98/128 12/95/12
vt 0.8181820 0.0909090
f 14/3/14 136/99/136 13/97/13
f 5/80/5 100/84/100 25/81/25
vt 0.0000000 0.1818180
f 100/84/100 26/100/26 25/81/25
f 6/83/6 101/86/101 100/84/100
vt 0.0909090 0.1818180
f 101/86/101 102/101/102 100/84/100
f 100/84/100 102/101/102 26/100/26
vt 0.0000000 0.2727270
f 102/101/102 27/102/27 26/100/26
f 7/85/7 103/88/103 101/86/101
vt 0.1818180 0.1818180
f 103/88/103 104/103/104 101/86/101
f 101/86/101 104/103/104 102/101/102
vt 0.0909090 0.2727270
f 104/103/104 105/104/105 102/101/102
f 102/101/102 105/104/105 27/102/27
vt 0.0000000 0.3636360
f 105/104/105 28/105/28 27/102/27
f 8/87/8 106/90/106 103/88/103
vt 0.2727270 0.1818180
f 106/90/106 107/106/107 103/88/103
f 103/88/103 107/106/107 104/103/104
vt 0.1818180 0.2727270
f 107/106/107 108/107/108 104/103/104
f 104/103/104 108/107/108 105/104/105
vt 0.0909090 0.3636360
f 108/107/108 109/108/109 105/104/105
f 105/104/105 109/108/109 28/105/28
vt 0.0000000 0.4545450
f 109/108/109 29/109/29 28/105/28
f 9/89/9 110/92/110 106/90/106
vt 0.3636360 0.1818180
f 110/92/110 111/110/111 106/90/106
f 106/90/106 111/110/111 107/106/107
vt 0.2727270 0.2727270
f 111/110/111 112/111/112 107/106/107
f 107/106/107 112/111/112 108/107/108
vt 0.1818180 0.3636360
f 112/111/112 113/112/113 108/107/108
f 108/107/108 113/112/113 109/108/109
vt 0.0909090 0.4545450
f 113/112/113 114/113/114 109/108/109
f 109/108/109 114/113/114 29/109/29
vt 0.0000000 0.5454550
f 114/113/114 30/114/30 29/109/29
f 10/91/10 115/94/115 110/92/110
vt 0.4545450 0.1818180
f 115/94/115 116/115/116 110/92/110
f 110/92/110 116/115/116 111/110/111
vt 0.3636360 0.2727270
f 116/115/116 117/116/117 111/110/111
f 111/110/111 117/116/117 112/111/112
vt 0.2727270 0.3636360
f 117/116/117 118/117/118 112/111/112
f 112/111/112 118/117/118 113/112/113
vt 0.1818180 0.4545450
f 118/117/118 119/118/119 113/112/113
f 113/112/113 119/118/119 114/113/114
vt 0.0909090 0.5454550
f 119/118/119 120/119/120 114/113/114
f 114/113/114 120/119/120 30/114/30
vt 0.0000000 0.6363640
f 120/119/120 31/120/31 30/114/30
f 11/93/11 121/96/121 115/94/115
vt 0.5454550 0.1818180
f 121/96/121 122/121/122 115/94/115
f 115/94/115 122/121/122 116/115/116
vt 0.4545450 0.2727270
f 122/121/122 123/122/123 116/115/116
f 116/115/116 123/122/123 117/116/117
vt 0.3636360 0.3636360
f 123/122/123 124/123/124 117/116/117
f 117/116/117 124/123/124 118/117/118
vt 0.2727270 0.4545450
f 124/123/124 125/124/125 118/117/118
f 118/117/118 125/124/125 119/118/119
vt 0.1818180 0.5454550
f 125/124/125 126/125/126 119/118/119
f 119/118/119 126/125/126 120/119/120
vt 0.0909090 0.6363640
f 126/125/126 127/126/127 120/119/120
f 120/119/120 127/126/127 31/120/31
vt 0.0000000 0.7272730
f 127/126/127 32/127/32 31/120/31
f 12/95/12 128/98/128 121/96/121
vt 0.6363640 0.1818180
f 128/98/128 129/128/129 121/96/121
f 121/96/121 129/128/129 122/121/122
vt 0.5454550 0.2727270
f 129/128/129 130/129/130 122/121/122
f 122/121/122 130/129/130 123/122/123
vt 0.4545450 0.3636360
f 130/129/130 131/130/131 123/122/123
f 123/122/123 131/130/131 124/123/124
vt 0.3636360 0.4545450
f 131/130/131 132/131/132 124/123/124
f 124/123/124 132/131/132 125/124/125
vt 0.2727270 0.5454550
f 132/131/132 133/132/133 125/124/125
f 125/124/125 133/132/133 126/125/126
vt 0.1818180 0.6363640
f 133/132/133 134/133/134 126/125/126
f 126/125/126 134/133/134 127/126/127
vt 0.0909090 0.7272730
f 134/133/134 135/134/135 127/126/127
f 127/126/127 135/134/135 32/127/32
vt 0.0000000 0.8181820
f 135/134/135 33/135/33 32/127/32
f 13/97/13 136/99/136 128/98/128
vt 0.7272730 0.1818180
f 136/99/136 137/136/137 128/98/128
f 128/98/128 137/136/137 129/128/129
vt 0.6363640 0.2727270
f 137/136/137 138/137/138 129/128/129
f 129/128/129 138/137/138 130/129/130
vt 0.5454550 0.3636360
f 138/137/138 139/138/139 130/129/130
f 130/129/130 139/138/139 131/130/131
vt 0.4545450 0.4545450
f 139/138/139 140/139/140 131/130/131
f 131/130/131 140/139/140 132/131/132
vt 0.3636360 0.5454550
f 140/139/140 141/140/141 132/131/132
f 132/131/132 141/140/141 133/132/133
vt 0.2727270 0.6363640
f 141/140/141 142/141/142 133/132/133
f 133/132/133 142/141/142 134/133/134
vt 0.1818180 0.7272730
f 142/141/142 143/142/143 134/133/134
f 134/133/134 143/142/143 135/134/135
vt 0.0909090 0.8181820
f 143/142/143 144/143/144 135/134/135
f 135/134/135 144/143/144 33/135/33
vt 0.0000000 0.9090910
f 144/143/144 34/144/34 33/135/33
f 14/3/14 15/2/15 136/99/136
f 15/2/15 16/22/16 136/99/136
f 136/99/136 16/22/16 137/136/137
f 16/22/16 17/20/17 137/136/137
f 137/136/137 17/20/17 138/137/138
f 17/20/17 18/18/18 138/137/138
f 138/137/138 18/18/18 139/138/139
f 18/18/18 19/16/19 139/138/139
f 139/138/139 19/16/19 140/139/140
f 19/16/19 20/14/20 140/139/140
f 140/139/140 20/14/20 141/140/141
f 20/14/20 21/12/21 141/140/141
f 141/140/141 21/12/21 142/141/142
f 21/12/21 22/10/22 142/141/142
f 142/141/142 22/10/22 143/142/143
f 22/10/22 23/8/23 143/142/143
f 143/142/143 23/8/23 144/143/144
f 23/8/23 24/5/24 144/143/144
f 144/143/144 24/5/24 34/144/34
f 24/5/24 3/7/3 34/144/34
# 242 faces, 144 coords texture

# End of File
