####
#
# OBJ File Generated by Meshlab
#
####
# Object original_background.obj
#
# Vertices: 4
# Faces: 1
#
####
mtllib ./original_background.obj.mtl

vn 2.0000000 0.0000000 0.0000000
v -0.0000000 1.1000000 2.0000000
vn 1.0000000 0.0000000 0.0000000
v 0.0000000 -1.1000000 2.0000000
vn 1.0000000 0.0000000 0.0000000
v -0.0000000 1.1000000 0.0000000
vn 2.0000000 0.0000000 0.0000000
v 0.0000000 -1.1000000 0.0000000
# 4 vertices, 0 vertices normals


usemtl material_0
vt 0.0000000 0.0000000
f 2/1/2 4/1/4 3/1/3 1/1/1
# 1 faces, 1 coords texture

# End of File
