# 
# Wavefront OBJ file
# Converted by the DEEP Exploration 3.5.9.1158
# Right Hemisphere, LTD
# http://www.righthemisphere.com/
# 
mtllib GC18_3.mtl
# object GC18_3
g GC18_3
v 0.0129443 7.92582e-019 -0.0987976
v 0.00468732 -0.00988148 -0.107027
v -0.0100473 -0.00610709 -0.105546
v -0.0108969 0.00610709 -0.0963999
v 0.00331268 0.00988148 -0.0922294
v 0.00980561 -0.0267595 0.0253879
v 0.00181185 -0.035968 0.0176907
v -0.0120277 -0.0322223 0.019234
v -0.0125872 -0.0206988 0.027885
v 0.000906502 -0.0173226 0.0316884
v -0.00631869 -0.13949 0.0861475
v -0.0102259 -0.141895 0.0734123
v -0.023647 -0.140252 0.0727737
v -0.0280345 -0.136832 0.0851141
v -0.017325 -0.136361 0.0933796
v -0.0361702 -0.30411 0.0993987
v -0.0289028 -0.305368 0.0893875
v -0.0361029 -0.304536 0.0792835
v -0.0478201 -0.302763 0.0830502
v -0.0478617 -0.3025 0.0954821
v -0.0651839 -0.46862 0.0987396
v -0.0560033 -0.471237 0.0923199
v -0.0589272 -0.469998 0.0812627
v -0.0699149 -0.466615 0.0808486
v -0.0737818 -0.465764 0.09165
v -0.169404 -0.724436 0.0850475
v -0.161118 -0.727964 0.0799374
v -0.162936 -0.726935 0.0697961
v -0.172346 -0.722772 0.0686384
v -0.176343 -0.721228 0.0780643
v -0.199067 -0.777415 0.0903347
v -0.193848 -0.782744 0.0834903
v -0.198746 -0.78213 0.0746522
v -0.206991 -0.776423 0.0760344
v -0.207189 -0.773508 0.0857267
v -0.229148 -0.826577 0.112084
v -0.227901 -0.83233 0.104135
v -0.235448 -0.830685 0.0979564
v -0.24136 -0.823915 0.102087
v -0.237466 -0.821376 0.110818
v -0.261187 -0.870085 0.143829
v -0.261459 -0.875852 0.136092
v -0.269396 -0.87369 0.131039
v -0.274029 -0.866588 0.135654
v -0.268955 -0.86436 0.143559
v -0.299682 -0.912598 0.171565
v -0.173316 -0.723004 0.0813491
v -0.166286 -0.718591 0.0795603
v -0.162219 -0.722574 0.0732614
v -0.166734 -0.72945 0.0711573
v -0.173592 -0.729715 0.0761557
v -0.138438 -0.764131 0.131211
v -0.131252 -0.760017 0.129744
v -0.126522 -0.764775 0.124674
v -0.130784 -0.771829 0.123007
v -0.138149 -0.771432 0.127047
v -0.105128 -0.795112 0.189274
v -0.0979216 -0.791142 0.188
v -0.0929231 -0.796206 0.183677
v -0.09704 -0.803306 0.182279
v -0.104583 -0.80263 0.185738
v -0.0798246 -0.825535 0.251142
v -0.0725397 -0.821783 0.250265
v -0.0673526 -0.827097 0.24669
v -0.0714317 -0.834132 0.245358
v -0.0791398 -0.833167 0.248109
v -0.0705951 -0.836062 0.284712
v -0.0633141 -0.832369 0.283952
v -0.0579711 -0.837874 0.281059
v -0.06195 -0.844969 0.280031
v -0.069752 -0.843849 0.282289
v -0.0619391 -0.84595 0.319406
v -0.0547749 -0.842188 0.318371
v -0.0494801 -0.847628 0.315383
v -0.053372 -0.854751 0.314572
v -0.0610721 -0.853714 0.317058
v -0.0403647 -0.864607 0.387046
v -0.0332143 -0.86094 0.386235
v -0.027932 -0.866365 0.383424
v -0.0318178 -0.873384 0.382497
v -0.0395016 -0.872298 0.384736
v -0.0252634 -0.885325 0.455381
v -0.0181204 -0.881764 0.454836
v -0.0128176 -0.887223 0.45237
v -0.0166832 -0.894158 0.451391
v -0.0243751 -0.892986 0.453252
v -0.0182901 -0.892129 0.490332
v -0.0112081 -0.888553 0.489636
v -0.00585885 -0.894071 0.487549
v -0.00963482 -0.901058 0.486954
v -0.0173178 -0.899858 0.488674
v -0.0113555 -0.898919 0.525899
v -0.00434996 -0.895309 0.525025
v 0.000900616 -0.900712 0.522553
v -0.00285989 -0.907663 0.521899
v -0.0104346 -0.906555 0.523967
v 0.00685455 -0.91558 0.594375
v 0.013848 -0.912041 0.593704
v 0.0190358 -0.917374 0.591148
v 0.0152487 -0.924208 0.590239
v 0.00772023 -0.9231 0.592234
v 0.0195092 -0.934054 0.663236
v 0.0264587 -0.930547 0.662584
v 0.0316314 -0.935872 0.660154
v 0.0278789 -0.94267 0.659303
v 0.020387 -0.941546 0.661208
v 0.0359466 -0.948323 0.732565
v 0.0427719 -0.944754 0.731601
v 0.0478033 -0.949929 0.728746
v 0.0440875 -0.956697 0.727946
v 0.0367597 -0.955704 0.730305
v 0.0561999 -0.969434 0.798706
v 0.0630045 -0.965901 0.797818
v 0.0678718 -0.970897 0.794513
v 0.0640754 -0.977517 0.793359
v 0.0568618 -0.976613 0.79595
v 0.0645263 -0.980421 0.831598
v 0.0713851 -0.976984 0.830964
v 0.0762849 -0.982017 0.827815
v 0.0724544 -0.988563 0.826502
v 0.0651872 -0.987577 0.82884
v 0.0735653 -0.992317 0.86461
v 0.0802673 -0.988731 0.863526
v 0.085059 -0.993645 0.860085
v 0.0813186 -1.00027 0.859042
v 0.0742151 -0.999448 0.861838
v 0.0980122 -1.01423 0.928996
v 0.104582 -1.01056 0.927674
v 0.108989 -1.01509 0.923372
v 0.105143 -1.02155 0.922034
v 0.0983585 -1.02102 0.92551
v 0.125689 -1.04604 0.987237
v 0.132227 -1.04239 0.985906
v 0.136212 -1.04647 0.980871
v 0.132137 -1.05264 0.979089
v 0.125634 -1.05237 0.983024
v 0.155407 -1.08063 1.04307
v 0.161623 -1.0767 1.04126
v 0.164895 -1.08009 1.03534
v 0.1607 -1.08611 1.03347
v 0.154837 -1.08644 1.03825
v 0.197059 -1.12108 1.08642
v 0.202838 -1.11676 1.08424
v 0.204767 -1.11881 1.07724
v 0.200181 -1.1244 1.0751
v 0.195417 -1.1258 1.08077
v 0.218839 -1.14666 1.09945
v 0.224642 -1.1424 1.0973
v 0.225847 -1.14363 1.08998
v 0.220789 -1.14866 1.08761
v 0.216458 -1.15054 1.09346
v 0.241514 -1.17327 1.10764
v 0.247027 -1.16871 1.10538
v 0.247708 -1.1694 1.09795
v 0.242616 -1.17438 1.0956
v 0.238788 -1.17677 1.10159
v 0.29014 -1.22573 1.11829
v 0.294906 -1.22049 1.11595
v 0.293739 -1.21939 1.10866
v 0.288251 -1.22397 1.10649
v 0.286027 -1.22788 1.11245
v 0.29997 -1.23303 1.10889
v -0.0725412 -0.46651 0.0893254
v -0.0653044 -0.46078 0.0912704
v -0.0573183 -0.465645 0.0900283
v -0.0596195 -0.474382 0.0873155
v -0.0690277 -0.474917 0.0868811
v -0.0796594 -0.503265 0.200631
v -0.0724952 -0.49746 0.201952
v -0.0646222 -0.502366 0.201107
v -0.0669206 -0.511202 0.199263
v -0.0762141 -0.511758 0.198969
v -0.0778134 -0.5238 0.315775
v -0.0707491 -0.517983 0.316648
v -0.0629729 -0.522811 0.3158
v -0.0652313 -0.531612 0.314403
v -0.0744032 -0.532222 0.314387
v -0.0770098 -0.547052 0.429399
v -0.0700331 -0.541327 0.430307
v -0.0623649 -0.54613 0.429669
v -0.0646024 -0.554823 0.428367
v -0.0736534 -0.555393 0.4282
v -0.079804 -0.553209 0.486367
v -0.0728677 -0.547522 0.487233
v -0.0652667 -0.552361 0.487103
v -0.0675052 -0.561038 0.486156
v -0.0764898 -0.561563 0.485701
v -0.0823456 -0.558865 0.544149
v -0.0754535 -0.553164 0.544553
v -0.0678887 -0.557929 0.544069
v -0.0701055 -0.566576 0.543365
v -0.0790404 -0.567154 0.543414
v -0.0778051 -0.568176 0.658537
v -0.0709992 -0.562549 0.659049
v -0.0635233 -0.567236 0.658428
v -0.0657089 -0.575761 0.657532
v -0.0745355 -0.576342 0.6576
v -0.0786881 -0.584481 0.771217
v -0.0719539 -0.578941 0.771949
v -0.0645607 -0.58361 0.771607
v -0.0667256 -0.592037 0.770664
v -0.0754568 -0.592575 0.770423
v -0.0823661 -0.591983 0.884545
v -0.0756935 -0.586466 0.885018
v -0.0683654 -0.591077 0.884544
v -0.0705092 -0.599443 0.883778
v -0.0791621 -0.600003 0.883779
v -0.0772635 -0.604332 0.996802
v -0.0706443 -0.598879 0.997466
v -0.063377 -0.603403 0.996622
v -0.0655048 -0.611653 0.995436
v -0.0740871 -0.612228 0.995547
v -0.078611 -0.61411 1.05172
v -0.0720207 -0.608772 1.05296
v -0.0647782 -0.61331 1.05231
v -0.0668922 -0.621451 1.05067
v -0.0754414 -0.621946 1.0503
v -0.0805502 -0.624622 1.10678
v -0.073976 -0.619258 1.10777
v -0.0667606 -0.623798 1.10723
v -0.0688754 -0.631967 1.1059
v -0.0773978 -0.632477 1.10563
v -0.0821913 -0.639017 1.21781
v -0.0756567 -0.633716 1.21892
v -0.0684868 -0.638121 1.21781
v -0.0705901 -0.646143 1.216
v -0.07906 -0.646697 1.216
v -0.0777528 -0.667418 1.32517
v -0.0712458 -0.662454 1.32722
v -0.0641271 -0.666655 1.32553
v -0.0662345 -0.674216 1.32243
v -0.0746557 -0.674687 1.32221
v -0.0826869 -0.708987 1.42749
v -0.0762153 -0.704625 1.43057
v -0.0691453 -0.708497 1.42825
v -0.0712474 -0.715252 1.42374
v -0.0796166 -0.715554 1.42327
v -0.0824251 -0.76694 1.52182
v -0.0758857 -0.763953 1.52604
v -0.0689474 -0.766568 1.52223
v -0.0711985 -0.771173 1.51566
v -0.0795282 -0.771403 1.5154
v -0.0818992 -0.802603 1.54363
v -0.0753463 -0.800642 1.54836
v -0.0684519 -0.802265 1.544
v -0.0707438 -0.80523 1.53658
v -0.0790546 -0.805438 1.53635
v -0.0813244 -0.841373 1.55893
v -0.0747494 -0.840353 1.56389
v -0.0679077 -0.841122 1.55926
v -0.0702542 -0.842617 1.55145
v -0.0785462 -0.842772 1.55124
v -0.0742111 -0.866079 1.56152
v -0.0264019 -0.138394 0.0805876
v -0.0192812 -0.129881 0.0807854
v -0.00916028 -0.133924 0.0828903
v -0.0100259 -0.144935 0.0839935
v -0.0206818 -0.147697 0.0825703
v -0.0528257 -0.127014 0.218786
v -0.0457941 -0.118642 0.218915
v -0.0357327 -0.122702 0.22027
v -0.0365461 -0.133582 0.220979
v -0.0471102 -0.136247 0.220062
v -0.0632232 -0.112663 0.357755
v -0.0562903 -0.104431 0.357641
v -0.0463369 -0.108455 0.358398
v -0.0471183 -0.119174 0.35898
v -0.0575546 -0.121774 0.358583
v -0.066372 -0.112503 0.427139
v -0.0595124 -0.104324 0.427397
v -0.0496201 -0.108325 0.427801
v -0.050366 -0.118977 0.427792
v -0.0607192 -0.121559 0.427383
v -0.0690512 -0.112376 0.496032
v -0.0622482 -0.104258 0.496321
v -0.0524604 -0.108218 0.497207
v -0.0532142 -0.118784 0.497465
v -0.0634678 -0.121353 0.496739
v -0.0828763 -0.106128 0.633019
v -0.0761525 -0.098141 0.632978
v -0.0664984 -0.102047 0.633715
v -0.0672556 -0.112448 0.634212
v -0.0773777 -0.11497 0.633782
v -0.0848222 -0.0974296 0.769638
v -0.078193 -0.0895399 0.769647
v -0.0686476 -0.0934014 0.770054
v -0.0693774 -0.103678 0.770298
v -0.0793738 -0.106167 0.77004
v -0.0913288 -0.099166 0.904876
v -0.0847874 -0.0913562 0.905227
v -0.0753646 -0.0951711 0.905979
v -0.0760824 -0.105339 0.906092
v -0.0859489 -0.107808 0.90541
v -0.0978727 -0.0947261 0.971491
v -0.0913403 -0.0869654 0.971633
v -0.0820131 -0.0907419 0.972923
v -0.0827811 -0.100837 0.973578
v -0.0925829 -0.103299 0.972693
v -0.105134 -0.0898253 1.03874
v -0.0986214 -0.0821059 1.03862
v -0.0892905 -0.0858807 1.03946
v -0.0900361 -0.0959331 1.04009
v -0.0998278 -0.0983709 1.03965
v -0.10967 -0.0815811 1.17207
v -0.103235 -0.0739038 1.17229
v -0.0940002 -0.0776351 1.17339
v -0.0947276 -0.0876185 1.17384
v -0.104412 -0.0900573 1.17302
v -0.126746 -0.0781333 1.303
v -0.120383 -0.0705019 1.30349
v -0.111413 -0.0741226 1.30581
v -0.112231 -0.0839916 1.30675
v -0.121707 -0.0864704 1.30502
v -0.15331 -0.058272 1.42955
v -0.146896 -0.0507684 1.42991
v -0.138571 -0.0540698 1.43408
v -0.13984 -0.0636139 1.43629
v -0.14895 -0.066211 1.43349
v -0.177852 -0.0409469 1.50166
v -0.171512 -0.0334466 1.50221
v -0.163703 -0.0364441 1.50739
v -0.165216 -0.0457969 1.51003
v -0.173961 -0.0485798 1.50649
v -0.211563 -0.0170761 1.5668
v -0.205321 -0.00957954 1.56766
v -0.198918 -0.0117711 1.57474
v -0.201202 -0.0206222 1.57825
v -0.209017 -0.0239008 1.57335
v -0.252803 0.0168992 1.6256
v 0.149819 -1.31174 1.07414
v 0.280672 -1.21343 1.12152
v 0.411526 -1.11511 1.1689
v 0.149536 -1.32777 1.10055
v 0.282454 -1.2311 1.15325
v 0.415373 -1.13443 1.20596
v 0.153901 -1.34804 1.1307
v 0.284588 -1.25459 1.19078
v 0.415276 -1.16113 1.25087
v 0.165491 -1.3792 1.16421
v 0.286533 -1.28162 1.23277
v 0.407575 -1.18403 1.30134
v 0.173826 -1.40616 1.18858
v 0.28681 -1.30756 1.26948
v 0.399795 -1.20897 1.35037
v 0.196027 -1.44094 1.19321
v 0.291591 -1.34441 1.30427
v 0.387155 -1.24789 1.41533
v 0.233479 -1.46867 1.21578
v 0.28702 -1.38217 1.33969
v 0.340561 -1.29567 1.4636
v 0.295235 -1.43449 1.36925
v 0.371287 -1.10218 1.04942
v 0.279397 -1.21273 1.11433
v 0.187508 -1.32329 1.17925
v 0.365751 -1.1086 1.02594
v 0.271181 -1.22233 1.08636
v 0.17661 -1.33606 1.14678
v 0.356382 -1.11924 0.994773
v 0.260106 -1.23308 1.04942
v 0.16383 -1.34692 1.10407
v 0.355221 -1.13953 0.957439
v 0.249516 -1.24538 1.00608
v 0.143811 -1.35123 1.05472
v 0.331351 -1.12766 0.927623
v 0.243705 -1.25477 0.959855
v 0.156059 -1.38188 0.992087
v 0.333484 -1.14892 0.863014
v 0.228179 -1.26419 0.907777
v 0.122875 -1.37947 0.952541
v 0.30322 -1.17121 0.810022
v 0.214516 -1.27856 0.861326
v 0.125811 -1.38591 0.912631
v 0.201097 -1.29481 0.815341
v 0.268939 -1.28864 1.269
v 0.284428 -1.21104 1.11863
v 0.299918 -1.13345 0.968261
v 0.311292 -1.28524 1.27702
v 0.313753 -1.20785 1.1233
v 0.316215 -1.13046 0.96958
v 0.373739 -1.27876 1.27807
v 0.35558 -1.20402 1.12529
v 0.33742 -1.12927 0.9725
v 0.441455 -1.28121 1.26617
v 0.404952 -1.19719 1.12361
v 0.368448 -1.11317 0.981055
v 0.504027 -1.27112 1.25498
v 0.449197 -1.19556 1.11302
v 0.394367 -1.12 0.971057
v 0.574607 -1.28337 1.22465
v 0.502196 -1.18962 1.09588
v 0.429785 -1.09587 0.967117
v 0.621403 -1.29876 1.16021
v 0.554597 -1.18097 1.07523
v 0.487792 -1.06318 0.990242
v 0.61266 -1.17133 1.06102
v -0.12093 -0.846025 1.41896
v -0.0784662 -0.836125 1.56071
v -0.0360023 -0.826225 1.70245
v -0.136567 -0.847904 1.42261
v -0.108541 -0.839559 1.56996
v -0.080515 -0.831215 1.71731
v -0.15489 -0.852552 1.42853
v -0.146201 -0.843567 1.5773
v -0.137512 -0.834583 1.72607
v -0.181364 -0.865309 1.43488
v -0.189473 -0.845595 1.58123
v -0.197581 -0.82588 1.72758
v -0.203636 -0.875569 1.4361
v -0.228535 -0.845231 1.57911
v -0.253435 -0.814893 1.72211
v -0.221686 -0.904166 1.43714
v -0.271729 -0.851408 1.57142
v -0.321773 -0.798651 1.7057
v -0.26018 -0.926198 1.45093
v -0.31336 -0.848561 1.55396
v -0.366539 -0.770924 1.65698
v -0.361049 -0.858152 1.53346
v 0.0626905 -0.830094 1.63702
v -0.0726892 -0.837297 1.5564
v -0.208069 -0.8445 1.47577
v 0.0827495 -0.844967 1.60835
v -0.0578128 -0.849563 1.53251
v -0.198375 -0.854158 1.45668
v 0.103811 -0.862393 1.5672
v -0.0397902 -0.863099 1.49943
v -0.183392 -0.863806 1.43166
v 0.122411 -0.892516 1.52207
v -0.0214134 -0.878619 1.45989
v -0.165238 -0.864721 1.39772
v 0.144595 -0.880926 1.47851
v -0.00121189 -0.894503 1.41991
v -0.147019 -0.90808 1.36131
v 0.170867 -0.915809 1.41014
v 0.0145258 -0.903603 1.36784
v -0.141815 -0.891398 1.32554
v 0.167649 -0.922698 1.33599
v 0.020508 -0.913892 1.31876
v -0.126633 -0.905086 1.30152
v 0.0218079 -0.923876 1.26918
v -0.240356 -0.837841 1.59724
v -0.0739398 -0.837741 1.56292
v 0.0924765 -0.837641 1.5286
v -0.236735 -0.85485 1.6255
v -0.0687415 -0.852964 1.58808
v 0.0992521 -0.851077 1.55067
v -0.225808 -0.882719 1.66499
v -0.0604417 -0.876936 1.62162
v 0.104925 -0.871153 1.57825
v -0.214302 -0.924496 1.69763
v -0.0499461 -0.905986 1.66077
v 0.11441 -0.887476 1.62391
v -0.201598 -0.956728 1.73762
v -0.0394618 -0.939393 1.68987
v 0.122675 -0.922058 1.64212
v -0.192371 -1.01606 1.76132
v -0.0249593 -0.980919 1.72455
v 0.142453 -0.945773 1.68778
v -0.16102 -1.07791 1.7528
v -0.0103594 -1.02468 1.75801
v 0.140301 -0.971452 1.76321
v -0.00549242 -1.07108 1.7966
v -0.290601 -0.130523 1.67908
v -0.232198 0.000138906 1.61109
v -0.173794 0.1308 1.54309
v -0.316226 -0.137354 1.6484
v -0.253177 -0.00410731 1.5849
v -0.190128 0.12914 1.52141
v -0.345036 -0.140882 1.60954
v -0.276569 -0.00909422 1.55134
v -0.208102 0.122693 1.49313
v -0.379954 -0.139475 1.5614
v -0.297799 -0.014519 1.51035
v -0.215644 0.110437 1.45931
v -0.405741 -0.139422 1.51948
v -0.312933 -0.0201882 1.4718
v -0.220124 0.0990455 1.42412
v -0.447872 -0.126003 1.48427
v -0.334145 -0.0225973 1.42955
v -0.220418 0.0808088 1.37484
v -0.471895 -0.10126 1.42996
v -0.347319 -0.0332839 1.3843
v -0.222742 0.0346918 1.33864
v -0.36972 -0.0323729 1.33255
v -0.13005 0.115693 1.6558
v -0.230182 -0.000208731 1.61811
v -0.330314 -0.11611 1.58041
v -0.132932 0.109783 1.68997
v -0.23386 -0.006713 1.64788
v -0.334789 -0.123209 1.60579
v -0.139468 0.0973403 1.73484
v -0.238207 -0.0171481 1.68628
v -0.336945 -0.131636 1.63773
v -0.158621 0.0880091 1.78744
v -0.245208 -0.0301601 1.73014
v -0.331795 -0.148329 1.67284
v -0.143789 0.0612403 1.82584
v -0.252381 -0.0415829 1.77571
v -0.360972 -0.144406 1.72558
v -0.169303 0.0410148 1.90658
v -0.260045 -0.0658934 1.82462
v -0.350787 -0.172802 1.74266
v -0.195182 -0.0177512 1.96425
v -0.274546 -0.0935284 1.86433
v -0.35391 -0.169306 1.76441
v -0.293809 -0.125707 1.89828
v -0.326707 -0.0394742 1.48053
v -0.230263 0.00453286 1.61332
v -0.13382 0.0485399 1.74612
v -0.330785 -0.0221056 1.4754
v -0.234442 0.0333756 1.6068
v -0.138098 0.0888568 1.7382
v -0.334348 0.00600617 1.46891
v -0.24076 0.0733202 1.59528
v -0.147173 0.140634 1.72166
v -0.348236 0.0383211 1.46524
v -0.245953 0.118208 1.57419
v -0.143669 0.198096 1.68314
v -0.347492 0.0656967 1.44513
v -0.25446 0.157821 1.55343
v -0.161429 0.249945 1.66172
v -0.371301 0.102758 1.42877
v -0.260642 0.202631 1.52039
v -0.149982 0.302504 1.612
v -0.394417 0.164166 1.42786
v -0.263931 0.241307 1.47867
v -0.133444 0.318448 1.52947
v -0.267494 0.264259 1.42275
# 527 verticies
vt 1 0
vt 1 0.333333
vt 0.8 0
vt 0 0
vt 0.2 0.333333
vt 0 0.333333
vt 0.8 0.333333
vt 0.6 0
vt 0.6 0.333333
vt 0.4 0
vt 0.4 0.333333
vt 0.2 0
vt 1 0.666667
vt 0.2 0.666667
vt 0 0.666667
vt 0.8 0.666667
vt 0.6 0.666667
vt 0.4 0.666667
vt 1 1
vt 0.2 1
vt 0 1
vt 0.8 1
vt 0.6 1
vt 0.4 1
vt 1 1.33333
vt 0.2 1.33333
vt 0 1.33333
vt 0.8 1.33333
vt 0.6 1.33333
vt 0.4 1.33333
vt 1 1.66667
vt 0.2 1.66667
vt 0 1.66667
vt 0.8 1.66667
vt 0.6 1.66667
vt 0.4 1.66667
vt 1 2
vt 0.2 2
vt 0 2
vt 0.8 2
vt 0.6 2
vt 0.4 2
vt 1 2.33333
vt 0.2 2.33333
vt 0 2.33333
vt 0.8 2.33333
vt 0.6 2.33333
vt 0.4 2.33333
vt 1 2.66667
vt 0.2 2.66667
vt 0 2.66667
vt 0.8 2.66667
vt 0.6 2.66667
vt 0.4 2.66667
vt 0.5 3
vt 1 3
vt 0.2 3
vt 0 3
vt 0.8 3
vt 0.6 3
vt 0.4 3
vt 1 3.33333
vt 0.2 3.33333
vt 0 3.33333
vt 0.8 3.33333
vt 0.6 3.33333
vt 0.4 3.33333
vt 1 3.66667
vt 0.2 3.66667
vt 0 3.66667
vt 0.8 3.66667
vt 0.6 3.66667
vt 0.4 3.66667
vt 1 4
vt 0.2 4
vt 0 4
vt 0.8 4
vt 0.6 4
vt 0.4 4
vt 1 4.33333
vt 0.2 4.33333
vt 0 4.33333
vt 0.8 4.33333
vt 0.6 4.33333
vt 0.4 4.33333
vt 1 4.66667
vt 0.2 4.66667
vt 0 4.66667
vt 0.8 4.66667
vt 0.6 4.66667
vt 0.4 4.66667
vt 1 5
vt 0.2 5
vt 0 5
vt 0.8 5
vt 0.6 5
vt 0.4 5
vt 1 5.33333
vt 0.2 5.33333
vt 0 5.33333
vt 0.8 5.33333
vt 0.6 5.33333
vt 0.4 5.33333
vt 1 5.66667
vt 0.2 5.66667
vt 0 5.66667
vt 0.8 5.66667
vt 0.6 5.66667
vt 0.4 5.66667
vt 1 6
vt 0.2 6
vt 0 6
vt 0.8 6
vt 0.6 6
vt 0.4 6
vt 1 6.33333
vt 0.2 6.33333
vt 0 6.33333
vt 0.8 6.33333
vt 0.6 6.33333
vt 0.4 6.33333
vt 1 6.66667
vt 0.2 6.66667
vt 0 6.66667
vt 0.8 6.66667
vt 0.6 6.66667
vt 0.4 6.66667
vt 1 7
vt 0.2 7
vt 0 7
vt 0.8 7
vt 0.6 7
vt 0.4 7
vt 1 7.33333
vt 0.2 7.33333
vt 0 7.33333
vt 0.8 7.33333
vt 0.6 7.33333
vt 0.4 7.33333
vt 1 7.66667
vt 0.2 7.66667
vt 0 7.66667
vt 0.8 7.66667
vt 0.6 7.66667
vt 0.4 7.66667
vt 1 8
vt 0.2 8
vt 0 8
vt 0.8 8
vt 0.6 8
vt 0.4 8
vt 1 8.33333
vt 0.2 8.33333
vt 0 8.33333
vt 0.8 8.33333
vt 0.6 8.33333
vt 0.4 8.33333
vt 1 8.66667
vt 0.2 8.66667
vt 0 8.66667
vt 0.8 8.66667
vt 0.6 8.66667
vt 0.4 8.66667
vt 1 9
vt 0.2 9
vt 0 9
vt 0.8 9
vt 0.6 9
vt 0.4 9
vt 1 9.33333
vt 0.2 9.33333
vt 0 9.33333
vt 0.8 9.33333
vt 0.6 9.33333
vt 0.4 9.33333
vt 0.5 9.66667
vt 0.5 7.66667
vt 0.5 6
vt 1 0.142857
vt 0.5 0
vt 0.5 0.142857
vt 0 0.142857
vt 1 0.285714
vt 0.5 0.285714
vt 0 0.285714
vt 1 0.428571
vt 0.5 0.428571
vt 0 0.428571
vt 1 0.571429
vt 0.5 0.571429
vt 0 0.571429
vt 1 0.714286
vt 0.5 0.714286
vt 0 0.714286
vt 1 0.857143
vt 0.5 0.857143
vt 0 0.857143
vt 0.5 1
# 198 texture verticies
vn 0.804587 -0.584373 -0.105586
vn 0.823871 -0.522148 -0.22045
vn 0.799018 -0.591832 -0.106321
vn 0.762428 0.628534 0.153777
vn 0.767995 0.621814 0.153399
vn 0.873812 -0.405304 -0.268664
vn -0.262102 -0.94337 -0.203362
vn -0.269432 -0.94155 -0.202215
vn -0.276745 -0.939674 -0.201057
vn -0.998415 -0.0497804 -0.0262639
vn -0.998286 -0.0125844 -0.0571561
vn -0.998867 -0.0413807 -0.0234841
vn -0.987338 -0.0077255 -0.158441
vn -0.305246 0.931715 0.196802
vn -0.297861 0.933784 0.198306
vn -0.290458 0.935796 0.199798
vn 0.756804 0.635206 0.154144
vn 0.912393 -0.26245 -0.314101
vn 0.650811 0.277346 0.706771
vn 0.621936 0.158624 0.766834
vn 0.56867 0.119166 0.813888
vn 0.944486 -0.213904 -0.249381
vn -0.215308 -0.435359 -0.874131
vn -0.0652978 -0.333235 -0.94058
vn -0.114038 -0.441521 -0.889974
vn 0.0118756 -0.276573 -0.960919
vn -0.963175 0.02252 -0.267932
vn -0.941192 0.0110417 -0.337692
vn -0.344907 0.45142 0.822958
vn -0.517926 0.328861 0.789685
vn -0.455277 0.452926 0.766538
vn -0.59704 0.260509 0.758735
vn 0.714173 0.232736 0.660144
vn 0.947763 -0.192347 -0.254457
vn -0.298768 0.130278 0.945392
vn -0.306852 0.0790426 0.948469
vn -0.414165 0.0888178 0.905858
vn 0.806708 -0.0345163 0.589941
vn 0.800768 -0.088458 0.592407
vn 0.728689 -0.0855097 0.679485
vn 0.0349315 -0.101153 -0.994257
vn 0.808182 -0.0843721 -0.582858
vn 0.804773 -0.11279 -0.582769
vn 0.866414 -0.121798 -0.484243
vn -0.935578 0.0571269 -0.348468
vn -0.299173 0.0475273 -0.953015
vn -0.300475 0.0388785 -0.952997
vn -0.189465 0.0289766 -0.98146
vn -0.611502 0.063105 0.788722
vn -0.983516 0.180682 -0.00711674
vn -0.987538 0.157243 -0.00663388
vn -0.979944 0.158615 -0.120625
vn 0.529748 -0.0866915 0.843713
vn 0.628747 -0.158879 0.761206
vn -0.511051 0.110056 0.852476
vn -0.613112 0.173231 0.770769
vn 0.503434 -0.183859 0.844245
vn 0.899155 -0.213407 -0.38207
vn 0.925734 -0.284332 -0.249343
vn -0.0729834 0.0217368 -0.997096
vn 0.0691608 0.0109443 -0.997545
vn -0.946577 0.221609 -0.234267
vn -0.882262 0.293866 -0.367774
vn 0.470541 -0.215331 0.855701
vn -0.591155 0.281169 0.755963
vn -0.519605 0.316075 0.793793
vn 0.510437 -0.24053 0.82559
vn 0.883545 -0.409824 -0.226701
vn 0.836668 -0.467899 -0.284704
vn 0.0775087 -0.0348381 -0.996383
vn 0.00248687 -0.0506562 -0.998713
vn -0.833652 0.392642 -0.388402
vn -0.83669 0.435774 -0.33174
vn 0.609535 -0.216742 0.762555
vn -0.371833 0.42913 0.823157
vn -0.162244 0.410279 0.897412
vn 0.734812 -0.292659 0.611884
vn 0.751192 -0.556466 -0.355044
vn 0.612216 -0.59998 -0.514991
vn -0.141741 -0.123342 -0.982189
vn -0.364749 -0.0866512 -0.927065
vn -0.836572 0.487481 -0.25002
vn -0.84155 0.537596 -0.0527645
vn 0.813737 -0.30088 0.497296
vn 0.0253495 0.479986 0.87691
vn 0.185026 0.431339 0.883013
vn 0.843548 -0.393326 0.365679
vn 0.479254 -0.66639 -0.571175
vn 0.330326 -0.683433 -0.651002
vn -0.517749 -0.10908 -0.84855
vn -0.646836 -0.0382547 -0.761669
vn -0.798892 0.599595 0.0475098
vn -0.73661 0.65017 0.186238
vn 0.835897 -0.428876 0.342553
vn 0.236776 0.432822 0.869829
vn 0.260786 0.395505 0.880662
vn 0.823808 -0.468061 0.31978
vn 0.253361 -0.732059 -0.632375
vn 0.207048 -0.738862 -0.64126
vn -0.705231 -0.0580399 -0.706598
vn -0.737415 -0.0429998 -0.674069
vn -0.715443 0.66229 0.222516
vn -0.704155 0.658152 0.266461
vn 0.796695 -0.497729 0.342846
vn 0.177468 -0.772811 -0.609318
vn -0.761163 -0.0781338 -0.643837
vn -0.723444 0.627707 0.287423
vn 0.240214 0.368417 0.89809
vn -0.235136 0.662658 0.711053
vn -0.261502 0.694981 0.66979
vn -0.234809 0.662815 0.711015
vn -0.879266 -0.265 0.395812
vn -0.883505 -0.260124 0.389557
vn -0.887515 -0.252161 0.385657
vn -0.28718 0.724952 0.626077
vn 0.7345 0.67704 0.0461187
vn 0.722877 0.690517 0.025191
vn 0.733877 0.677664 0.0468744
vn 0.712195 0.701976 0.00278264
vn 0.690428 -0.245137 -0.680601
vn 0.708361 -0.270171 -0.652099
vn 0.688111 -0.249131 -0.681496
vn 0.72601 -0.293413 -0.621947
vn -0.307112 -0.830051 -0.465508
vn -0.283517 -0.858071 -0.428173
vn -0.304714 -0.82982 -0.467492
vn -0.260964 -0.883943 -0.387999
vn -0.879634 -0.267871 0.393052
vn -0.32104 0.762598 0.561585
vn -0.908315 -0.23225 0.347885
vn -0.923599 -0.21473 0.317578
vn -0.330189 0.772459 0.542478
vn 0.710309 0.70389 0.000252888
vn 0.719986 0.69371 0.0196278
vn 0.760468 -0.329009 -0.559859
vn 0.774792 -0.346338 -0.528912
vn -0.239416 -0.907282 -0.345715
vn -0.239012 -0.907221 -0.346155
vn -0.357005 0.804871 0.474058
vn -0.946576 -0.189984 0.260576
vn -0.954934 -0.179489 0.236399
vn -0.37382 0.825252 0.423342
vn 0.72612 0.686767 0.0331754
vn 0.72431 0.688973 0.0263153
vn 0.806578 -0.380772 -0.452155
vn 0.821875 -0.399669 -0.405939
vn -0.227717 -0.922477 -0.311738
vn -0.216304 -0.936389 -0.276383
vn -0.39159 0.846129 0.361556
vn -0.964009 -0.168482 0.205672
vn -0.965443 -0.167244 0.199872
vn -0.394372 0.849012 0.351639
vn 0.722255 0.691364 0.0190512
vn 0.722075 0.691565 0.0185895
vn 0.838065 -0.419412 -0.348915
vn 0.840867 -0.421768 -0.339198
vn -0.203744 -0.950727 -0.233679
vn -0.202151 -0.952652 -0.227133
vn -0.395657 0.850152 0.347415
vn -0.961716 -0.171499 0.213756
vn -0.956141 -0.177282 0.233165
vn -0.394645 0.848272 0.353116
vn 0.71743 0.696628 0.0021148
vn 0.71278 0.701249 -0.0139411
vn 0.83937 -0.419957 -0.3451
vn 0.835265 -0.414995 -0.360708
vn -0.198386 -0.956398 -0.214352
vn -0.196253 -0.958219 -0.208088
vn -0.394362 0.847861 0.354416
vn -0.958696 -0.174948 0.224264
vn -0.966334 -0.167161 0.195589
vn -0.395944 0.84897 0.34997
vn 0.715241 0.698865 -0.00417733
vn 0.721645 0.691922 0.0217458
vn 0.836601 -0.416394 -0.35597
vn 0.842187 -0.422009 -0.335604
vn -0.19778 -0.956408 -0.214865
vn -0.200697 -0.952705 -0.228196
vn -0.403946 0.858831 0.315019
vn -0.973303 -0.158921 0.165604
vn -0.97357 -0.158365 0.164566
vn -0.410374 0.866513 0.284161
vn 0.723906 0.689256 0.0297649
vn 0.720251 0.693611 0.0118919
vn 0.85164 -0.432836 -0.29557
vn 0.855637 -0.437887 -0.275934
vn -0.197628 -0.957137 -0.211737
vn -0.191363 -0.96454 -0.181778
vn -0.416486 0.873678 0.251447
vn -0.974053 -0.157633 0.162397
vn -0.974263 -0.157524 0.161237
vn -0.417513 0.873673 0.249755
vn 0.716576 0.697483 -0.00597973
vn 0.716549 0.697512 -0.00590119
vn 0.8597 -0.443035 -0.254235
vn 0.860327 -0.442888 -0.252363
vn -0.185094 -0.971158 -0.15031
vn -0.184425 -0.971439 -0.14931
vn -0.413422 0.869293 0.270947
vn -0.970588 -0.161805 0.178264
vn -0.966298 -0.166691 0.19617
vn -0.409065 0.86398 0.293606
vn 0.715244 0.698805 -0.00991146
vn 0.713719 0.700294 -0.0139333
vn 0.855764 -0.437596 -0.276002
vn 0.850427 -0.431184 -0.30142
vn -0.186248 -0.969415 -0.159833
vn -0.188114 -0.96704 -0.171603
vn -0.404563 0.859394 0.312683
vn -0.967989 -0.16483 0.189286
vn -0.973576 -0.158813 0.164096
vn -0.405482 0.860221 0.309199
vn 0.718118 0.695904 0.00482202
vn 0.723079 0.690209 0.0277063
vn 0.848491 -0.429605 -0.309036
vn 0.852586 -0.433779 -0.291433
vn -0.193419 -0.961537 -0.195028
vn -0.196055 -0.958484 -0.207051
vn -0.408239 0.863565 0.295966
vn -0.974939 -0.156893 0.157728
vn -0.970973 -0.161536 0.1764
vn -0.410897 0.86559 0.286214
vn 0.722919 0.690451 0.0257844
vn 0.717096 0.696973 0.00116471
vn 0.855065 -0.436943 -0.279185
vn 0.853959 -0.435583 -0.284642
vn -0.19424 -0.960836 -0.197648
vn -0.188599 -0.966048 -0.176586
vn -0.404226 0.859354 0.313229
vn -0.963099 -0.169921 0.208729
vn -0.959325 -0.174078 0.222243
vn -0.395147 0.849479 0.349634
vn 0.713361 0.700643 -0.0146717
vn 0.715253 0.698843 -0.00569602
vn 0.845504 -0.426361 -0.321465
vn 0.837428 -0.417665 -0.35252
vn -0.190914 -0.964319 -0.183413
vn -0.197639 -0.957141 -0.211708
vn -0.385419 0.839399 0.383225
vn -0.959857 -0.172875 0.220883
vn -0.964076 -0.168005 0.205749
vn -0.386105 0.84008 0.381037
vn 0.721836 0.691865 0.016612
vn 0.725663 0.687388 0.0301905
vn 0.831395 -0.412236 -0.372618
vn 0.834404 -0.415583 -0.362023
vn -0.207443 -0.946708 -0.246396
vn -0.20946 -0.944392 -0.253478
vn -0.384353 0.838056 0.387214
vn -0.96693 -0.164317 0.195054
vn -0.965781 -0.165856 0.199397
vn -0.382031 0.83521 0.395572
vn 0.729781 0.682219 0.044682
vn 0.730255 0.68165 0.0456176
vn 0.835226 -0.416539 -0.359017
vn 0.833292 -0.41378 -0.366619
vn -0.213257 -0.940026 -0.266221
vn -0.215124 -0.937995 -0.271821
vn -0.377735 0.83008 0.410223
vn -0.956328 -0.177548 0.232194
vn -0.947124 -0.187084 0.260684
vn -0.376366 0.827523 0.416599
vn 0.723095 0.690396 0.0220888
vn 0.714278 0.69986 -0.0020188
vn 0.824839 -0.40377 -0.395741
vn 0.817586 -0.396974 -0.417091
vn -0.212964 -0.940165 -0.265963
vn -0.207342 -0.944365 -0.255311
vn -0.354991 0.807025 0.471902
vn -0.932375 -0.201981 0.299802
vn -0.927603 -0.205521 0.311952
vn -0.334274 0.786341 0.519546
vn 0.71331 0.700801 -0.008235
vn 0.72149 0.69236 0.00950851
vn 0.79606 -0.37428 -0.475608
vn 0.779815 -0.359632 -0.5124
vn -0.221014 -0.932561 -0.285451
vn -0.23842 -0.914637 -0.326488
vn -0.304122 0.755265 0.58059
vn -0.919138 -0.214061 0.330702
vn -0.915279 -0.21206 0.342484
vn -0.296217 0.746659 0.595613
vn 0.731119 0.681658 0.0284068
vn 0.734942 0.677576 0.0273897
vn 0.756215 -0.335518 -0.561753
vn 0.747077 -0.331991 -0.575898
vn -0.262895 -0.888688 -0.37566
vn -0.268301 -0.882695 -0.385828
vn -0.252759 0.70491 0.662733
vn -0.883182 -0.25022 0.396712
vn -0.850171 -0.279048 0.446478
vn -0.217214 0.667471 0.71225
vn 0.726795 0.686724 0.0133685
vn 0.716946 0.697127 -0.00160417
vn 0.703132 -0.283215 -0.652223
vn 0.658198 -0.244842 -0.711918
vn -0.290766 -0.861582 -0.416091
vn -0.303459 -0.845111 -0.440114
vn -0.121476 0.574284 0.809593
vn -0.79688 -0.33374 0.503587
vn -0.777229 -0.350346 0.522659
vn -0.0624685 0.515083 0.854861
vn 0.722729 0.69112 -0.00396729
vn 0.740408 0.672129 0.00625179
vn 0.568936 -0.150676 -0.808461
vn 0.519678 -0.104798 -0.847911
vn -0.369559 -0.784852 -0.497427
vn -0.416718 -0.736072 -0.533428
vn 0.0262961 0.421505 0.906445
vn -0.742141 -0.390862 0.544476
vn -0.724056 -0.408952 0.555428
vn 0.055035 0.38973 0.919283
vn 0.75825 0.65177 0.0158905
vn 0.759536 0.650328 0.0133297
vn 0.44375 -0.0208255 -0.895908
vn 0.414685 0.00948731 -0.909916
vn -0.483835 -0.664268 -0.569782
vn -0.502249 -0.644057 -0.577007
vn 0.0984471 0.341679 0.934646
vn -0.690842 -0.447488 0.567884
vn -0.666614 -0.458916 0.587386
vn 0.112398 0.325285 0.938912
vn 0.751467 0.659696 0.00991802
vn 0.744201 0.667956 -0.000840742
vn 0.368097 0.0626606 -0.927674
vn 0.342206 0.0736411 -0.936735
vn -0.523381 -0.620759 -0.583721
vn -0.524203 -0.616292 -0.587703
vn 0.126384 0.308926 0.942651
vn -0.646436 -0.47429 0.597637
vn -0.63533 -0.46347 0.617698
vn 0.124489 0.307646 0.943322
vn 0.802117 0.59629 -0.0323329
vn 0.832804 0.551224 -0.0508831
vn 0.307643 0.0978088 -0.946461
vn 0.29604 0.0949744 -0.950442
vn -0.487283 -0.638299 -0.595928
vn -0.465864 -0.649228 -0.601227
vn 0.597591 -0.196311 0.777397
vn 0.906863 0.413092 -0.0833982
vn 0.282034 0.11288 -0.952741
vn -0.40707 -0.685794 -0.603308
vn -0.201824 -0.864546 0.460247
vn -0.640821 0.74024 0.203455
vn -0.639734 0.746164 0.184336
vn -0.639769 0.741027 0.203899
vn -0.92498 -0.339354 -0.171029
vn -0.927859 -0.349139 -0.131071
vn -0.928792 -0.359221 -0.0911399
vn -0.639307 0.751087 0.164787
vn 0.530024 0.794051 0.297585
vn 0.53225 0.810016 0.246137
vn 0.528853 0.794811 0.297642
vn 0.533329 0.823409 0.193797
vn 0.968269 -0.249207 -0.0187157
vn 0.968795 -0.245878 -0.0313049
vn 0.968417 -0.248646 -0.018571
vn 0.969102 -0.242711 -0.0439721
vn 0.0681403 -0.949041 -0.307699
vn 0.0664382 -0.962219 -0.264048
vn 0.0673112 -0.949099 -0.307702
vn 0.0656313 -0.973337 -0.219791
vn -0.925821 -0.337438 -0.170267
vn -0.639216 0.754366 0.149449
vn -0.928726 -0.366447 -0.0564359
vn -0.928736 -0.365479 -0.0622495
vn -0.639115 0.753533 0.154015
vn 0.533646 0.832358 0.149676
vn 0.533269 0.830994 0.158341
vn 0.969158 -0.240007 -0.0559369
vn 0.969118 -0.240344 -0.0551776
vn 0.0651582 -0.9809 -0.183277
vn 0.0654837 -0.979324 -0.191408
vn -0.639257 0.759065 0.123165
vn -0.928713 -0.36343 -0.0735532
vn -0.928668 -0.36239 -0.0790484
vn -0.638541 0.764586 0.0876033
vn 0.533666 0.832179 0.150598
vn 0.534181 0.834651 0.134198
vn 0.969168 -0.244676 -0.0291214
vn 0.968592 -0.248627 -0.00382222
vn 0.0651112 -0.983691 -0.167671
vn 0.0643486 -0.988672 -0.135601
vn -0.63714 0.7691 0.0503667
vn -0.928636 -0.361863 -0.0817946
vn -0.928614 -0.362524 -0.0790719
vn -0.63741 0.768984 0.0487059
vn 0.53469 0.837318 0.114043
vn 0.534927 0.837664 0.110326
vn 0.967504 -0.251984 0.0209807
vn 0.967724 -0.251183 0.0204157
vn 0.0634382 -0.992955 -0.100077
vn 0.063234 -0.993301 -0.0967218
vn -0.637841 0.767781 0.0605906
vn -0.929384 -0.365896 -0.048636
vn -0.929115 -0.369192 -0.0210476
vn -0.638456 0.766094 0.0739902
vn 0.535088 0.840283 0.0872107
vn 0.534518 0.842435 0.0677815
vn 0.968597 -0.248571 -0.00568441
vn 0.968913 -0.245419 -0.031274
vn 0.0634853 -0.993939 -0.0897524
vn 0.0641781 -0.994211 -0.0861669
vn -0.638379 0.764025 0.0934805
vn -0.929048 -0.369631 -0.015605
vn -0.929186 -0.367664 -0.0379136
vn -0.638587 0.763106 0.0993752
vn 0.534571 0.841856 0.0742417
vn 0.534349 0.839317 0.100092
vn 0.968677 -0.243884 -0.0467497
vn 0.968913 -0.244662 -0.0367123
vn 0.0642391 -0.992683 -0.10224
vn 0.0645326 -0.990436 -0.121954
vn -0.63841 0.76549 0.0803575
vn -0.929094 -0.36524 -0.0581824
vn -0.9291 -0.365524 -0.0562685
vn -0.638347 0.767762 0.0552613
vn 0.534642 0.838084 0.108508
vn 0.534646 0.840151 0.091105
vn 0.968833 -0.247405 -0.0124288
vn 0.968576 -0.248711 0.00180785
vn 0.0639986 -0.991244 -0.115496
vn 0.0641763 -0.993931 -0.0893488
vn -0.638187 0.76771 0.0577798
vn -0.929266 -0.367681 -0.0357221
vn -0.928764 -0.370271 -0.017242
vn -0.638698 0.764718 0.0852671
vn 0.534677 0.841974 0.0721204
vn 0.534027 0.842518 0.0705585
vn 0.968828 -0.247419 -0.012528
vn 0.968946 -0.243831 -0.041107
vn 0.0639357 -0.994805 -0.0792151
vn 0.064523 -0.993353 -0.0953189
vn -0.638297 0.761141 0.115071
vn -0.929218 -0.368463 -0.02809
vn -0.92932 -0.364755 -0.0576027
vn -0.638468 0.760645 0.117374
vn 0.534712 0.83912 0.0998033
vn 0.534657 0.834929 0.130521
vn 0.968613 -0.242866 -0.0529607
vn 0.968882 -0.244853 -0.0362672
vn 0.0642259 -0.989182 -0.13189
vn 0.0642538 -0.986226 -0.152412
vn -0.638448 0.760148 0.120659
vn -0.928807 -0.359081 -0.0915302
vn -0.928614 -0.35835 -0.0962385
vn -0.638434 0.760006 0.121628
vn 0.534443 0.828649 0.166467
vn 0.533973 0.827858 0.171828
vn 0.968646 -0.247847 -0.0172458
vn 0.968545 -0.24839 -0.0149125
vn 0.0641337 -0.982177 -0.176678
vn 0.0644767 -0.981451 -0.180546
vn -0.638275 0.761667 0.111659
vn -0.928925 -0.359758 -0.0875905
vn -0.929149 -0.362161 -0.0743075
vn -0.637651 0.763702 0.100802
vn 0.534461 0.83045 0.157176
vn 0.534142 0.834212 0.137049
vn 0.968522 -0.24853 -0.0140508
vn 0.968409 -0.24888 -0.0155594
vn 0.064161 -0.98418 -0.165144
vn 0.0642061 -0.98722 -0.145859
vn -0.638345 0.757982 0.134083
vn -0.929237 -0.364602 -0.0598753
vn -0.9284 -0.366791 -0.0594835
vn -0.63734 0.749662 0.178336
vn 0.534819 0.832702 0.143443
vn 0.533943 0.828253 0.170003
vn 0.968932 -0.243224 -0.0448701
vn 0.968827 -0.236871 -0.0725658
vn 0.0638392 -0.983317 -0.170331
vn 0.0630166 -0.974835 -0.213834
vn -0.63606 0.734673 0.235974
vn -0.930099 -0.353935 -0.0982123
vn -0.930482 -0.339513 -0.137602
vn -0.631452 0.733329 0.251988
vn 0.536161 0.807729 0.245163
vn 0.53614 0.791449 0.293536
vn 0.968059 -0.235979 -0.0847041
vn 0.966699 -0.245985 -0.0705992
vn 0.0619607 -0.953256 -0.295743
vn 0.0589937 -0.940666 -0.334165
vn -0.633289 0.707415 0.313861
vn -0.930096 -0.319901 -0.180514
vn -0.929213 -0.318987 -0.186576
vn -0.617837 0.694432 0.368839
vn 0.537377 0.755043 0.37568
vn 0.531927 0.740069 0.411524
vn 0.967179 -0.240595 -0.0817279
vn 0.963636 -0.241339 -0.114725
vn 0.0587394 -0.90457 -0.422258
vn 0.0512828 -0.880613 -0.471052
vn -0.624451 0.59115 0.510493
vn -0.934299 -0.276252 -0.225322
vn -0.936563 -0.235629 -0.259478
vn -0.616537 0.505681 0.603464
vn 0.546552 0.638202 0.542198
vn 0.551279 0.544431 0.632208
vn 0.964426 -0.198319 -0.174789
vn 0.96204 -0.172818 -0.211219
vn 0.0476786 -0.762238 -0.645538
vn 0.0397866 -0.649654 -0.759189
vn -0.616795 0.363747 0.698034
vn -0.938496 -0.173837 -0.29834
vn -0.939037 -0.155968 -0.306404
vn -0.612076 0.323346 0.721672
vn 0.556189 0.396813 0.730201
vn 0.556982 0.353984 0.75131
vn 0.961693 -0.118875 -0.247011
vn 0.960316 -0.106603 -0.257737
vn 0.0374558 -0.473199 -0.880159
vn 0.0338339 -0.422168 -0.905886
vn -0.613462 0.161642 0.773005
vn -0.934021 -0.18998 -0.30251
vn -0.930219 -0.215946 -0.296748
vn -0.608657 0.0997182 0.787143
vn 0.565652 0.187997 0.802929
vn 0.56552 0.12514 0.815185
vn 0.95555 -0.147701 -0.255165
vn 0.951461 -0.176926 -0.251833
vn 0.0314219 -0.379262 -0.924755
vn 0.0296527 -0.384437 -0.922675
vn -0.591053 -0.0861202 0.802022
vn 0.55414 -0.0647222 0.829903
vn 0.937834 -0.257928 -0.23225
vn 0.0297714 -0.398735 -0.916583
vn -0.91514 -0.29255 -0.277367
vn -0.749995 0.631912 -0.195435
vn -0.753284 0.634997 -0.171296
vn -0.749746 0.632224 -0.195381
vn -0.836112 -0.536177 -0.115889
vn -0.841729 -0.533887 -0.080357
vn -0.846309 -0.530813 -0.0447099
vn -0.756587 0.637133 -0.147098
vn 0.371676 0.928353 -0.00419473
vn 0.375867 0.926352 -0.0243957
vn 0.373095 0.927786 -0.0037489
vn 0.378084 0.924673 -0.0450679
vn 0.979289 -0.0575393 0.194118
vn 0.985532 -0.0623977 0.157586
vn 0.979158 -0.0590246 0.194335
vn 0.990515 -0.0658757 0.120582
vn 0.233301 -0.964326 0.125086
vn 0.233003 -0.964677 0.122912
vn 0.232898 -0.964428 0.125051
vn 0.23384 -0.96475 0.120735
vn -0.834959 -0.538014 -0.115689
vn -0.76181 0.640939 -0.0940396
vn -0.848525 -0.528835 -0.0183918
vn -0.847719 -0.529716 -0.0278099
vn -0.763861 0.64208 -0.0651877
vn 0.377942 0.92502 -0.0386985
vn 0.375744 0.926652 -0.0114722
vn 0.995065 -0.068981 0.0713284
vn 0.995835 -0.06929 0.0592616
vn 0.237043 -0.967871 0.0838875
vn 0.239804 -0.969583 0.0490131
vn -0.765047 0.64305 -0.0344885
vn -0.847242 -0.530018 -0.0355159
vn -0.847452 -0.529799 -0.0337431
vn -0.765362 0.642766 -0.0327621
vn 0.374159 0.927239 0.0152568
vn 0.374229 0.927221 0.0146062
vn 0.996532 -0.0699017 0.0451319
vn 0.996625 -0.0699113 0.0430217
vn 0.241423 -0.970324 0.0136224
vn 0.241761 -0.970248 0.0130608
vn -0.764219 0.642521 -0.0560062
vn -0.846913 -0.530095 -0.0417011
vn -0.846165 -0.530437 -0.0513944
vn -0.762749 0.641594 -0.0810635
vn 0.37457 0.927162 0.00818571
vn 0.374859 0.927079 0.00242308
vn 0.995638 -0.0694083 0.0623435
vn 0.99413 -0.0685378 0.0837193
vn 0.240654 -0.970101 0.0314641
vn 0.239614 -0.96956 0.0503897
vn -0.762042 0.641523 -0.0879822
vn -0.847476 -0.529771 -0.0335632
vn -0.848604 -0.528995 -0.00599531
vn -0.763466 0.642051 -0.0699383
vn 0.376297 0.926289 -0.0197184
vn 0.376669 0.92564 -0.0361952
vn 0.994647 -0.0690704 0.0768501
vn 0.996383 -0.0697865 0.0484857
vn 0.238311 -0.968787 0.068265
vn 0.238853 -0.968728 0.0671901
vn -0.764701 0.642876 -0.0440805
vn -0.848865 -0.528607 -0.00147628
vn -0.847801 -0.529748 -0.0245259
vn -0.765216 0.642746 -0.0363497
vn 0.376339 0.926147 -0.0249026
vn 0.374676 0.927152 0.00279665
vn 0.997071 -0.0705381 0.0295622
vn 0.996792 -0.0699315 0.0389239
vn 0.240047 -0.969758 0.044126
vn 0.24143 -0.970167 0.0220733
vn -0.763897 0.642709 -0.0581965
vn -0.846623 -0.530053 -0.0476803
vn -0.846765 -0.529815 -0.047807
vn -0.761702 0.641953 -0.0877808
vn 0.374636 0.92709 0.0123572
vn 0.376064 0.926576 -0.00574464
vn 0.995357 -0.0694682 0.0666172
vn 0.993986 -0.0691962 0.0848738
vn 0.240375 -0.970235 0.0293893
vn 0.238224 -0.969432 0.0587453
vn -0.75834 0.640536 -0.120973
vn -0.84673 -0.529715 -0.0494962
vn -0.846476 -0.529973 -0.0510591
vn -0.758423 0.639697 -0.124827
vn 0.377692 0.925605 -0.0245827
vn 0.377733 0.925567 -0.0253751
vn 0.991941 -0.0685877 0.106529
vn 0.99164 -0.0677306 0.109834
vn 0.235189 -0.967683 0.0909706
vn 0.235278 -0.967383 0.0938824
vn -0.760244 0.640649 -0.107698
vn -0.847673 -0.529436 -0.0338776
vn -0.848816 -0.528471 -0.0151162
vn -0.762324 0.641349 -0.0867977
vn 0.377754 0.925351 -0.0320438
vn 0.377898 0.925071 -0.0379064
vn 0.993693 -0.0686421 0.088673
vn 0.995523 -0.0695758 0.0639829
vn 0.236266 -0.96775 0.0873987
vn 0.237578 -0.968234 0.0779699
vn -0.762393 0.641835 -0.0824855
vn -0.847843 -0.529426 -0.0295046
vn -0.845098 -0.530924 -0.0626747
vn -0.761073 0.641036 -0.0991995
vn 0.37644 0.926205 -0.0209218
vn 0.373382 0.927676 0.00160699
vn 0.995102 -0.0695265 0.0702742
vn 0.992482 -0.0688426 0.101192
vn 0.23851 -0.96896 0.0650371
vn 0.240023 -0.968814 0.0615465
vn -0.752909 0.637888 -0.161945
vn -0.841412 -0.531911 -0.0953773
vn -0.844781 -0.526426 -0.0960277
vn -0.742846 0.636499 -0.207481
vn 0.37641 0.926442 -0.00464332
vn 0.383679 0.922882 -0.032861
vn 0.984954 -0.0652749 0.160018
vn 0.97946 -0.0694022 0.189317
vn 0.232582 -0.966966 0.104319
vn 0.223698 -0.962976 0.150452
vn -0.720656 0.626647 -0.296595
vn -0.841663 -0.527376 -0.116099
vn -0.839633 -0.525533 -0.137228
vn -0.706135 0.621227 -0.339779
vn 0.394546 0.916361 -0.0679424
vn 0.39989 0.913562 -0.0741112
vn 0.964415 -0.0622584 0.25696
vn 0.952769 -0.0611142 0.297484
vn 0.202284 -0.952582 0.227306
vn 0.191461 -0.946882 0.258376
vn -0.672498 0.599536 -0.433938
vn -0.824676 -0.536898 -0.177907
vn -0.820494 -0.53445 -0.202861
vn -0.648177 0.588285 -0.483516
vn 0.40857 0.908146 -0.0913315
vn 0.416281 0.903748 -0.0997506
vn 0.924087 -0.038691 0.38022
vn 0.903105 -0.0351952 0.427975
vn 0.162742 -0.930863 0.327122
vn 0.145667 -0.919605 0.364838
vn -0.594288 0.556845 -0.580297
vn -0.80924 -0.53896 -0.233779
vn -0.810819 -0.533447 -0.240847
vn -0.577335 0.550037 -0.603443
vn 0.416746 0.903404 -0.100913
vn 0.415234 0.904684 -0.0955387
vn 0.832875 0.0153706 0.553248
vn 0.803329 0.0287694 0.59484
vn 0.0729773 -0.879547 0.470181
vn 0.0458884 -0.862802 0.503455
vn -0.529901 0.518334 -0.671219
vn 0.404843 0.910488 -0.0843403
vn 0.709357 0.0941694 0.69853
vn -0.037193 -0.802502 0.595489
vn -0.803103 -0.540364 -0.251061
vn -0.63901 0.660633 0.393993
vn -0.636744 0.639746 0.430444
vn -0.638372 0.658225 0.399025
vn -0.638479 0.639293 0.428544
vn -0.637968 0.655471 0.404171
vn -0.64042 0.649241 0.410302
vn -0.637063 0.564927 0.524412
vn -0.654001 0.601722 0.45849
vn -0.662871 0.663654 0.346649
vn -0.669839 0.476717 0.569259
vn -0.700945 0.574824 0.422202
vn -0.707674 0.647338 0.283108
vn -0.716414 0.463236 0.521693
vn -0.761054 0.506007 0.405899
vn -0.76813 0.555111 0.319105
vn -0.463535 -0.180562 0.867486
vn -0.547067 -0.210309 0.810239
vn -0.837306 0.313931 0.447623
vn -0.842523 0.410726 0.34851
vn -0.817741 0.557139 0.144552
vn -0.885389 0.0418584 0.462963
vn -0.624505 -0.237713 0.743967
vn -0.919991 0.30853 0.241715
vn -0.765478 0.633707 -0.111624
vn -0.930552 0.0581363 0.361515
vn -0.930552 0.0581362 0.361514
vn -0.767414 0.641127 0.00560234
vn -0.766967 0.641645 0.00731562
vn -0.767437 0.6411 0.00553704
vn -0.763651 0.64541 0.0168119
vn -0.767459 0.641075 0.0054676
vn -0.758436 0.650899 0.0332397
vn -0.780593 0.62047 -0.075441
vn -0.76137 0.647745 -0.0272358
vn -0.723451 0.684977 0.086165
vn -0.762939 0.629027 -0.149163
vn -0.705631 0.697666 0.12388
vn -0.751691 0.65452 -0.0810129
vn -0.410082 0.685805 0.601252
vn -0.830972 0.546194 -0.10563
vn -0.798447 0.597807 -0.0714802
vn -0.775566 0.625001 0.0887168
vn -0.764256 0.644912 0.00145348
vn -0.724124 0.673967 0.146331
vn -0.723741 0.679282 0.121552
vn -0.750238 0.659517 0.0466913
vn -0.770047 0.637534 -0.0240538
vn -0.78633 0.613008 -0.0768455
vn -0.770913 0.63694 -0.000112743
vn -0.154219 0.884416 0.440483
vn -0.140152 0.885581 0.442837
vn -0.162117 0.883166 0.440154
vn -0.139063 0.885547 0.443247
vn -0.181164 0.880239 0.438588
vn -0.136887 0.885346 0.444325
vn -0.0318311 0.896426 0.44205
vn -0.0695657 0.886198 0.458054
vn -0.245538 0.838621 0.486237
vn -0.0125067 0.8709 0.491301
vn -0.101342 0.857962 0.503618
vn -0.501073 0.683311 0.531047
vn 0.112582 0.888859 0.444133
vn 0.160884 0.88225 0.442439
vn 0.22381 0.882364 0.413936
vn 0.0143935 0.855609 0.517422
vn 0.335081 0.855982 0.393721
vn 0.110095 0.81473 0.569293
vn -0.276 0.6308 0.7252
vn 0.582948 0.776919 0.237841
vn 0.138358 0.6299 0.764253
vn 0.113107 0.681531 0.722996
vn -0.496026 0.305195 0.812905
vn 0.0893216 0.6156 0.782981
vn 0.0893217 0.615599 0.782981
vn -0.126427 0.99148 -0.031373
vn -0.166281 0.985787 -0.0239544
vn -0.124319 0.991721 -0.0321486
vn -0.141066 0.989473 -0.032312
vn -0.122699 0.991907 -0.0326477
vn -0.10076 0.994051 -0.0413434
vn -0.27053 0.962242 -0.0300702
vn -0.142507 0.987868 -0.0617124
vn 0.00662698 0.996794 -0.0797334
vn -0.311834 0.944332 -0.104864
vn -0.0602541 0.988952 -0.135437
vn 0.120975 0.982387 -0.142414
vn -0.445334 0.868341 -0.218314
vn 0.0162832 0.974251 -0.224877
vn 0.131496 0.966652 -0.219757
vn -0.518102 0.756687 -0.398742
vn -0.822538 0.51011 -0.251435
vn 0.00207317 0.926932 -0.375223
vn 0.388715 0.884228 -0.258922
vn -0.559156 0.67931 -0.47527
vn 0.173151 0.82745 -0.534177
vn 0.265886 0.856026 -0.44331
vn 0.66403 0.720423 -0.200136
vn 0.0819817 0.815817 -0.57247
vn 0.165695 0.918032 -0.360226
vn 0.158935 0.92328 -0.349704
vn 0.167294 0.916357 -0.363734
vn 0.154947 0.927123 -0.341226
vn 0.170319 0.913493 -0.369488
vn 0.146665 0.93455 -0.324199
vn 0.169156 0.913131 -0.370914
vn 0.163429 0.930495 -0.327827
vn 0.120713 0.973728 -0.193085
vn 0.146315 0.973461 -0.175972
vn 0.116451 0.980557 -0.157948
vn 0.181253 0.92445 -0.335468
vn 0.0436036 0.982204 -0.182684
vn 0.112758 0.929095 -0.352233
vn 0.218167 0.679647 -0.700345
vn 0.102778 0.969484 -0.222572
vn 0.0622761 0.995954 -0.0647872
vn -0.0325434 0.991576 0.125367
vn -0.0420108 0.907853 0.417178
vn 0.0887796 0.982749 -0.162241
vn 0.0957605 0.96496 -0.244298
vn 0.117103 0.940869 -0.317887
vn 0.0939931 0.942447 -0.320872
vn 0.0813126 0.977479 -0.194738
vn 0.103255 0.857986 0.503188
vn 0.106198 0.84854 0.518364
vn 0.102436 0.859551 0.500678
vn 0.108571 0.84268 0.527354
vn 0.101485 0.86176 0.497062
vn 0.112142 0.833602 0.540862
vn 0.136578 0.767782 0.625985
vn 0.115684 0.789746 0.602428
vn 0.0715467 0.864017 0.498353
vn 0.0892821 0.748384 0.65723
vn 0.0699916 0.793034 0.605143
vn 0.0899554 0.734367 0.672766
vn 0.14068 0.631672 0.762365
vn 0.139006 0.596029 0.79084
vn 0.0914057 0.697451 0.710779
vn 0.165047 0.355064 0.920157
vn -0.0156605 0.682721 0.730512
vn -0.125182 0.828913 0.545191
vn 0.219117 -0.0233262 0.97542
vn -0.23055 0.575803 0.784409
vn -0.204095 0.677645 0.706501
vn -0.295284 0.78209 0.548764
vn -0.240238 0.605759 0.758513
vn 0.696919 -0.550612 -0.45949
vn 0.694662 -0.550157 -0.463434
vn 0.694073 -0.550732 -0.463634
vn 0.701493 -0.550881 -0.452148
vn 0.689302 -0.551281 -0.470056
vn 0.723287 -0.549249 -0.418547
vn 0.691619 -0.557039 -0.459751
vn 0.729961 -0.562728 -0.387935
vn 0.800089 -0.555206 -0.227163
vn 0.692866 -0.59619 -0.40558
vn 0.762792 -0.59931 -0.242849
vn 0.811823 -0.582598 -0.0390302
vn 0.622993 -0.638686 -0.451618
vn 0.690654 -0.669322 -0.273871
vn 0.756396 -0.654076 0.00700063
vn 0.479255 -0.718832 -0.503582
vn 0.620315 -0.771963 -0.138861
vn 0.668728 -0.678108 0.304912
vn 0.458029 -0.859583 -0.226554
vn 0.504424 -0.858949 -0.0881075
vn 0.533111 -0.538866 0.652239
vn 0.413833 -0.889269 -0.19479
vn 0.413833 -0.889269 -0.19479
vn 0.763386 -0.644229 -0.0470211
vn 0.76418 -0.642812 -0.0531232
vn 0.763314 -0.64434 -0.0466606
vn 0.766054 -0.639746 -0.0623368
vn 0.763228 -0.644481 -0.0461258
vn 0.769232 -0.633815 -0.0809981
vn 0.756681 -0.653778 -0.00284246
vn 0.773302 -0.632691 -0.041294
vn 0.800439 -0.574105 -0.172338
vn 0.817521 -0.555887 -0.150495
vn 0.807859 -0.560997 -0.180681
vn 0.774906 -0.632072 0.00236882
vn 0.786746 -0.320755 -0.527396
vn 0.691822 -0.721844 -0.0180225
vn 0.729323 -0.684081 -0.0110282
vn 0.548637 -0.754753 0.359647
vn 0.775924 -0.621859 -0.105985
vn 0.785409 -0.596541 -0.165143
vn 0.721904 -0.658081 -0.213973
vn 0.743583 -0.128009 -0.656276
vn 0.788213 -0.593887 -0.161304
vn 0.743079 -0.665421 -0.0710556
vn 0.683251 -0.728693 0.0466353
vn 0.668934 -0.742637 0.0318809
vn 0.773216 -0.617066 -0.146175
vn 0.806657 0.0150379 -0.590829
vn 0.809645 -0.0106593 -0.586823
vn 0.809236 -0.00502481 -0.587462
vn 0.811929 -0.0279365 -0.583087
vn 0.811591 -0.0215238 -0.58383
vn 0.813006 -0.0365405 -0.581107
vn 0.788595 0.0549736 -0.612451
vn 0.803611 -0.0387546 -0.593892
vn 0.8225 -0.190643 -0.535862
vn 0.794078 -0.112965 -0.597226
vn 0.803159 -0.229918 -0.549612
vn 0.788694 -0.179519 -0.587992
vn 0.78643 -0.126693 -0.604547
vn 0.781372 -0.123318 -0.611761
vn 0.811384 -0.26668 -0.520132
vn 0.682908 0.000274919 -0.730505
vn 0.751509 -0.425963 -0.503775
vn 0.717996 -0.623865 -0.308665
vn 0.522707 0.184372 -0.832336
vn 0.577638 -0.669321 -0.467272
vn 0.621717 -0.69103 -0.368709
vn 0.555655 -0.806281 -0.202875
vn 0.573336 -0.744471 -0.342126
# 899 normals
usemtl Stalk
f  1/1/1 6/2/2 2/3/3
f  1/4/4 10/5/4 6/6/5
f  2/3/3 6/2/2 7/7/6
f  2/3/7 7/7/8 3/8/8
f  3/8/8 7/7/8 8/9/9
f  3/8/10 8/9/11 4/10/12
f  4/10/12 8/9/11 9/11/13
f  4/10/14 9/11/15 5/12/15
f  5/12/15 9/11/15 10/5/16
f  5/12/17 10/5/4 1/4/4
f  6/2/2 11/13/18 7/7/6
f  6/6/19 15/14/20 11/15/21
f  7/7/6 11/13/18 12/16/22
f  7/7/23 12/16/24 8/9/25
f  8/9/25 12/16/24 13/17/26
f  8/9/11 13/17/27 9/11/13
f  9/11/13 13/17/27 14/18/28
f  9/11/29 14/18/30 10/5/31
f  10/5/31 14/18/30 15/14/32
f  10/5/33 15/14/20 6/6/19
f  11/13/18 16/19/34 12/16/22
f  11/15/35 20/20/36 16/21/37
f  12/16/38 16/19/39 17/22/40
f  12/16/24 17/22/41 13/17/26
f  13/17/42 17/22/43 18/23/44
f  13/17/27 18/23/45 14/18/28
f  14/18/46 18/23/47 19/24/48
f  14/18/30 19/24/49 15/14/32
f  15/14/50 19/24/51 20/20/52
f  15/14/20 20/20/53 11/15/21
f  16/19/39 21/25/54 17/22/40
f  16/21/37 25/26/55 21/27/56
f  17/22/40 21/25/54 22/28/57
f  17/22/43 22/28/58 18/23/44
f  18/23/44 22/28/58 23/29/59
f  18/23/47 23/29/60 19/24/48
f  19/24/48 23/29/60 24/30/61
f  19/24/51 24/30/62 20/20/52
f  20/20/52 24/30/62 25/26/63
f  20/20/36 25/26/55 16/21/37
f  21/25/54 26/31/64 22/28/57
f  21/27/56 30/32/65 26/33/66
f  22/28/57 26/31/64 27/34/67
f  22/28/58 27/34/68 23/29/59
f  23/29/59 27/34/68 28/35/69
f  23/29/60 28/35/70 24/30/61
f  24/30/61 28/35/70 29/36/71
f  24/30/62 29/36/72 25/26/63
f  25/26/63 29/36/72 30/32/73
f  25/26/55 30/32/65 21/27/56
f  26/31/64 31/37/74 27/34/67
f  26/33/66 35/38/75 31/39/76
f  27/34/67 31/37/74 32/40/77
f  27/34/68 32/40/78 28/35/69
f  28/35/69 32/40/78 33/41/79
f  28/35/70 33/41/80 29/36/71
f  29/36/71 33/41/80 34/42/81
f  29/36/72 34/42/82 30/32/73
f  30/32/73 34/42/82 35/38/83
f  30/32/65 35/38/75 26/33/66
f  31/37/74 36/43/84 32/40/77
f  31/39/76 40/44/85 36/45/86
f  32/40/77 36/43/84 37/46/87
f  32/40/78 37/46/88 33/41/79
f  33/41/79 37/46/88 38/47/89
f  33/41/80 38/47/90 34/42/81
f  34/42/81 38/47/90 39/48/91
f  34/42/82 39/48/92 35/38/83
f  35/38/83 39/48/92 40/44/93
f  35/38/75 40/44/85 31/39/76
f  36/43/84 41/49/94 37/46/87
f  36/45/86 45/50/95 41/51/96
f  37/46/87 41/49/94 42/52/97
f  37/46/88 42/52/98 38/47/89
f  38/47/89 42/52/98 43/53/99
f  38/47/90 43/53/100 39/48/91
f  39/48/91 43/53/100 44/54/101
f  39/48/92 44/54/102 40/44/93
f  40/44/93 44/54/102 45/50/103
f  40/44/85 45/50/95 36/45/86
f  41/49/94 46/55/104 42/52/97
f  42/52/98 46/55/105 43/53/99
f  43/53/100 46/55/106 44/54/101
f  44/54/102 46/55/107 45/50/103
f  45/50/95 46/55/108 41/51/96
f  47/37/109 52/43/110 48/40/111
f  47/39/112 56/44/113 52/45/114
f  48/40/111 52/43/110 53/46/115
f  48/40/116 53/46/117 49/41/118
f  49/41/118 53/46/117 54/47/119
f  49/41/120 54/47/121 50/42/122
f  50/42/122 54/47/121 55/48/123
f  50/42/124 55/48/125 51/38/126
f  51/38/126 55/48/125 56/44/127
f  51/38/128 56/44/113 47/39/112
f  52/43/110 57/49/129 53/46/115
f  52/45/114 61/50/130 57/51/131
f  53/46/115 57/49/129 58/52/132
f  53/46/117 58/52/133 54/47/119
f  54/47/119 58/52/133 59/53/134
f  54/47/121 59/53/135 55/48/123
f  55/48/123 59/53/135 60/54/136
f  55/48/125 60/54/137 56/44/127
f  56/44/127 60/54/137 61/50/138
f  56/44/113 61/50/130 52/45/114
f  57/49/129 62/56/139 58/52/132
f  57/51/131 66/57/140 62/58/141
f  58/52/132 62/56/139 63/59/142
f  58/52/133 63/59/143 59/53/134
f  59/53/134 63/59/143 64/60/144
f  59/53/135 64/60/145 60/54/136
f  60/54/136 64/60/145 65/61/146
f  60/54/137 65/61/147 61/50/138
f  61/50/138 65/61/147 66/57/148
f  61/50/130 66/57/140 57/51/131
f  62/56/139 67/62/149 63/59/142
f  62/58/141 71/63/150 67/64/151
f  63/59/142 67/62/149 68/65/152
f  63/59/143 68/65/153 64/60/144
f  64/60/144 68/65/153 69/66/154
f  64/60/145 69/66/155 65/61/146
f  65/61/146 69/66/155 70/67/156
f  65/61/147 70/67/157 66/57/148
f  66/57/148 70/67/157 71/63/158
f  66/57/140 71/63/150 62/58/141
f  67/62/149 72/68/159 68/65/152
f  67/64/151 76/69/160 72/70/161
f  68/65/152 72/68/159 73/71/162
f  68/65/153 73/71/163 69/66/154
f  69/66/154 73/71/163 74/72/164
f  69/66/155 74/72/165 70/67/156
f  70/67/156 74/72/165 75/73/166
f  70/67/157 75/73/167 71/63/158
f  71/63/158 75/73/167 76/69/168
f  71/63/150 76/69/160 67/64/151
f  72/68/159 77/74/169 73/71/162
f  72/70/161 81/75/170 77/76/171
f  73/71/162 77/74/169 78/77/172
f  73/71/163 78/77/173 74/72/164
f  74/72/164 78/77/173 79/78/174
f  74/72/165 79/78/175 75/73/166
f  75/73/166 79/78/175 80/79/176
f  75/73/167 80/79/177 76/69/168
f  76/69/168 80/79/177 81/75/178
f  76/69/160 81/75/170 72/70/161
f  77/74/169 82/80/179 78/77/172
f  77/76/171 86/81/180 82/82/181
f  78/77/172 82/80/179 83/83/182
f  78/77/173 83/83/183 79/78/174
f  79/78/174 83/83/183 84/84/184
f  79/78/175 84/84/185 80/79/176
f  80/79/176 84/84/185 85/85/186
f  80/79/177 85/85/187 81/75/178
f  81/75/178 85/85/187 86/81/188
f  81/75/170 86/81/180 77/76/171
f  82/80/179 87/86/189 83/83/182
f  82/82/181 91/87/190 87/88/191
f  83/83/182 87/86/189 88/89/192
f  83/83/183 88/89/193 84/84/184
f  84/84/184 88/89/193 89/90/194
f  84/84/185 89/90/195 85/85/186
f  85/85/186 89/90/195 90/91/196
f  85/85/187 90/91/197 86/81/188
f  86/81/188 90/91/197 91/87/198
f  86/81/180 91/87/190 82/82/181
f  87/86/189 92/92/199 88/89/192
f  87/88/191 96/93/200 92/94/201
f  88/89/192 92/92/199 93/95/202
f  88/89/193 93/95/203 89/90/194
f  89/90/194 93/95/203 94/96/204
f  89/90/195 94/96/205 90/91/196
f  90/91/196 94/96/205 95/97/206
f  90/91/197 95/97/207 91/87/198
f  91/87/198 95/97/207 96/93/208
f  91/87/190 96/93/200 87/88/191
f  92/92/199 97/98/209 93/95/202
f  92/94/201 101/99/210 97/100/211
f  93/95/202 97/98/209 98/101/212
f  93/95/203 98/101/213 94/96/204
f  94/96/204 98/101/213 99/102/214
f  94/96/205 99/102/215 95/97/206
f  95/97/206 99/102/215 100/103/216
f  95/97/207 100/103/217 96/93/208
f  96/93/208 100/103/217 101/99/218
f  96/93/200 101/99/210 92/94/201
f  97/98/209 102/104/219 98/101/212
f  97/100/211 106/105/220 102/106/221
f  98/101/212 102/104/219 103/107/222
f  98/101/213 103/107/223 99/102/214
f  99/102/214 103/107/223 104/108/224
f  99/102/215 104/108/225 100/103/216
f  100/103/216 104/108/225 105/109/226
f  100/103/217 105/109/227 101/99/218
f  101/99/218 105/109/227 106/105/228
f  101/99/210 106/105/220 97/100/211
f  102/104/219 107/110/229 103/107/222
f  102/106/221 111/111/230 107/112/231
f  103/107/222 107/110/229 108/113/232
f  103/107/223 108/113/233 104/108/224
f  104/108/224 108/113/233 109/114/234
f  104/108/225 109/114/235 105/109/226
f  105/109/226 109/114/235 110/115/236
f  105/109/227 110/115/237 106/105/228
f  106/105/228 110/115/237 111/111/238
f  106/105/220 111/111/230 102/106/221
f  107/110/229 112/116/239 108/113/232
f  107/112/231 116/117/240 112/118/241
f  108/113/232 112/116/239 113/119/242
f  108/113/233 113/119/243 109/114/234
f  109/114/234 113/119/243 114/120/244
f  109/114/235 114/120/245 110/115/236
f  110/115/236 114/120/245 115/121/246
f  110/115/237 115/121/247 111/111/238
f  111/111/238 115/121/247 116/117/248
f  111/111/230 116/117/240 107/112/231
f  112/116/239 117/122/249 113/119/242
f  112/118/241 121/123/250 117/124/251
f  113/119/242 117/122/249 118/125/252
f  113/119/243 118/125/253 114/120/244
f  114/120/244 118/125/253 119/126/254
f  114/120/245 119/126/255 115/121/246
f  115/121/246 119/126/255 120/127/256
f  115/121/247 120/127/257 116/117/248
f  116/117/248 120/127/257 121/123/258
f  116/117/240 121/123/250 112/118/241
f  117/122/249 122/128/259 118/125/252
f  117/124/251 126/129/260 122/130/261
f  118/125/252 122/128/259 123/131/262
f  118/125/253 123/131/263 119/126/254
f  119/126/254 123/131/263 124/132/264
f  119/126/255 124/132/265 120/127/256
f  120/127/256 124/132/265 125/133/266
f  120/127/257 125/133/267 121/123/258
f  121/123/258 125/133/267 126/129/268
f  121/123/250 126/129/260 117/124/251
f  122/128/259 127/134/269 123/131/262
f  122/130/261 131/135/270 127/136/271
f  123/131/262 127/134/269 128/137/272
f  123/131/263 128/137/273 124/132/264
f  124/132/264 128/137/273 129/138/274
f  124/132/265 129/138/275 125/133/266
f  125/133/266 129/138/275 130/139/276
f  125/133/267 130/139/277 126/129/268
f  126/129/268 130/139/277 131/135/278
f  126/129/260 131/135/270 122/130/261
f  127/134/269 132/140/279 128/137/272
f  127/136/271 136/141/280 132/142/281
f  128/137/272 132/140/279 133/143/282
f  128/137/273 133/143/283 129/138/274
f  129/138/274 133/143/283 134/144/284
f  129/138/275 134/144/285 130/139/276
f  130/139/276 134/144/285 135/145/286
f  130/139/277 135/145/287 131/135/278
f  131/135/278 135/145/287 136/141/288
f  131/135/270 136/141/280 127/136/271
f  132/140/279 137/146/289 133/143/282
f  132/142/281 141/147/290 137/148/291
f  133/143/282 137/146/289 138/149/292
f  133/143/283 138/149/293 134/144/284
f  134/144/284 138/149/293 139/150/294
f  134/144/285 139/150/295 135/145/286
f  135/145/286 139/150/295 140/151/296
f  135/145/287 140/151/297 136/141/288
f  136/141/288 140/151/297 141/147/298
f  136/141/280 141/147/290 132/142/281
f  137/146/289 142/152/299 138/149/292
f  137/148/291 146/153/300 142/154/301
f  138/149/292 142/152/299 143/155/302
f  138/149/293 143/155/303 139/150/294
f  139/150/294 143/155/303 144/156/304
f  139/150/295 144/156/305 140/151/296
f  140/151/296 144/156/305 145/157/306
f  140/151/297 145/157/307 141/147/298
f  141/147/298 145/157/307 146/153/308
f  141/147/290 146/153/300 137/148/291
f  142/152/299 147/158/309 143/155/302
f  142/154/301 151/159/310 147/160/311
f  143/155/302 147/158/309 148/161/312
f  143/155/303 148/161/313 144/156/304
f  144/156/304 148/161/313 149/162/314
f  144/156/305 149/162/315 145/157/306
f  145/157/306 149/162/315 150/163/316
f  145/157/307 150/163/317 146/153/308
f  146/153/308 150/163/317 151/159/318
f  146/153/300 151/159/310 142/154/301
f  147/158/309 152/164/319 148/161/312
f  147/160/311 156/165/320 152/166/321
f  148/161/312 152/164/319 153/167/322
f  148/161/313 153/167/323 149/162/314
f  149/162/314 153/167/323 154/168/324
f  149/162/315 154/168/325 150/163/316
f  150/163/316 154/168/325 155/169/326
f  150/163/317 155/169/327 151/159/318
f  151/159/318 155/169/327 156/165/328
f  151/159/310 156/165/320 147/160/311
f  152/164/319 157/170/329 153/167/322
f  152/166/321 161/171/330 157/172/331
f  153/167/322 157/170/329 158/173/332
f  153/167/323 158/173/333 154/168/324
f  154/168/324 158/173/333 159/174/334
f  154/168/325 159/174/335 155/169/326
f  155/169/326 159/174/335 160/175/336
f  155/169/327 160/175/337 156/165/328
f  156/165/328 160/175/337 161/171/338
f  156/165/320 161/171/330 152/166/321
f  157/170/339 162/176/339 158/173/339
f  158/173/333 162/176/340 159/174/334
f  159/174/335 162/176/341 160/175/336
f  160/175/337 162/176/342 161/171/338
f  161/171/343 162/176/343 157/172/343
f  163/31/344 168/37/345 164/34/346
f  163/33/347 172/38/348 168/39/349
f  164/34/346 168/37/345 169/40/350
f  164/34/351 169/40/352 165/35/353
f  165/35/353 169/40/352 170/41/354
f  165/35/355 170/41/356 166/36/357
f  166/36/357 170/41/356 171/42/358
f  166/36/359 171/42/360 167/32/361
f  167/32/361 171/42/360 172/38/362
f  167/32/363 172/38/348 163/33/347
f  168/37/345 173/43/364 169/40/350
f  168/39/349 177/44/365 173/45/366
f  169/40/350 173/43/364 174/46/367
f  169/40/352 174/46/368 170/41/354
f  170/41/354 174/46/368 175/47/369
f  170/41/356 175/47/370 171/42/358
f  171/42/358 175/47/370 176/48/371
f  171/42/360 176/48/372 172/38/362
f  172/38/362 176/48/372 177/44/373
f  172/38/348 177/44/365 168/39/349
f  173/43/364 178/49/374 174/46/367
f  173/45/366 182/50/375 178/51/376
f  174/46/367 178/49/374 179/52/377
f  174/46/368 179/52/378 175/47/369
f  175/47/369 179/52/378 180/53/379
f  175/47/370 180/53/380 176/48/371
f  176/48/371 180/53/380 181/54/381
f  176/48/372 181/54/382 177/44/373
f  177/44/373 181/54/382 182/50/383
f  177/44/365 182/50/375 173/45/366
f  178/49/374 183/56/384 179/52/377
f  178/51/376 187/57/385 183/58/386
f  179/52/377 183/56/384 184/59/387
f  179/52/378 184/59/388 180/53/379
f  180/53/379 184/59/388 185/60/389
f  180/53/380 185/60/390 181/54/381
f  181/54/381 185/60/390 186/61/391
f  181/54/382 186/61/392 182/50/383
f  182/50/383 186/61/392 187/57/393
f  182/50/375 187/57/385 178/51/376
f  183/56/384 188/62/394 184/59/387
f  183/58/386 192/63/395 188/64/396
f  184/59/387 188/62/394 189/65/397
f  184/59/388 189/65/398 185/60/389
f  185/60/389 189/65/398 190/66/399
f  185/60/390 190/66/400 186/61/391
f  186/61/391 190/66/400 191/67/401
f  186/61/392 191/67/402 187/57/393
f  187/57/393 191/67/402 192/63/403
f  187/57/385 192/63/395 183/58/386
f  188/62/394 193/68/404 189/65/397
f  188/64/396 197/69/405 193/70/406
f  189/65/397 193/68/404 194/71/407
f  189/65/398 194/71/408 190/66/399
f  190/66/399 194/71/408 195/72/409
f  190/66/400 195/72/410 191/67/401
f  191/67/401 195/72/410 196/73/411
f  191/67/402 196/73/412 192/63/403
f  192/63/403 196/73/412 197/69/413
f  192/63/395 197/69/405 188/64/396
f  193/68/404 198/74/414 194/71/407
f  193/70/406 202/75/415 198/76/416
f  194/71/407 198/74/414 199/77/417
f  194/71/408 199/77/418 195/72/409
f  195/72/409 199/77/418 200/78/419
f  195/72/410 200/78/420 196/73/411
f  196/73/411 200/78/420 201/79/421
f  196/73/412 201/79/422 197/69/413
f  197/69/413 201/79/422 202/75/423
f  197/69/405 202/75/415 193/70/406
f  198/74/414 203/80/424 199/77/417
f  198/76/416 207/81/425 203/82/426
f  199/77/417 203/80/424 204/83/427
f  199/77/418 204/83/428 200/78/419
f  200/78/419 204/83/428 205/84/429
f  200/78/420 205/84/430 201/79/421
f  201/79/421 205/84/430 206/85/431
f  201/79/422 206/85/432 202/75/423
f  202/75/423 206/85/432 207/81/433
f  202/75/415 207/81/425 198/76/416
f  203/80/424 208/86/434 204/83/427
f  203/82/426 212/87/435 208/88/436
f  204/83/427 208/86/434 209/89/437
f  204/83/428 209/89/438 205/84/429
f  205/84/429 209/89/438 210/90/439
f  205/84/430 210/90/440 206/85/431
f  206/85/431 210/90/440 211/91/441
f  206/85/432 211/91/442 207/81/433
f  207/81/433 211/91/442 212/87/443
f  207/81/425 212/87/435 203/82/426
f  208/86/434 213/92/444 209/89/437
f  208/88/436 217/93/445 213/94/446
f  209/89/437 213/92/444 214/95/447
f  209/89/438 214/95/448 210/90/439
f  210/90/439 214/95/448 215/96/449
f  210/90/440 215/96/450 211/91/441
f  211/91/441 215/96/450 216/97/451
f  211/91/442 216/97/452 212/87/443
f  212/87/443 216/97/452 217/93/453
f  212/87/435 217/93/445 208/88/436
f  213/92/444 218/98/454 214/95/447
f  213/94/446 222/99/455 218/100/456
f  214/95/447 218/98/454 219/101/457
f  214/95/448 219/101/458 215/96/449
f  215/96/449 219/101/458 220/102/459
f  215/96/450 220/102/460 216/97/451
f  216/97/451 220/102/460 221/103/461
f  216/97/452 221/103/462 217/93/453
f  217/93/453 221/103/462 222/99/463
f  217/93/445 222/99/455 213/94/446
f  218/98/454 223/104/464 219/101/457
f  218/100/456 227/105/465 223/106/466
f  219/101/457 223/104/464 224/107/467
f  219/101/458 224/107/468 220/102/459
f  220/102/459 224/107/468 225/108/469
f  220/102/460 225/108/470 221/103/461
f  221/103/461 225/108/470 226/109/471
f  221/103/462 226/109/472 222/99/463
f  222/99/463 226/109/472 227/105/473
f  222/99/455 227/105/465 218/100/456
f  223/104/464 228/110/474 224/107/467
f  223/106/466 232/111/475 228/112/476
f  224/107/467 228/110/474 229/113/477
f  224/107/468 229/113/478 225/108/469
f  225/108/469 229/113/478 230/114/479
f  225/108/470 230/114/480 226/109/471
f  226/109/471 230/114/480 231/115/481
f  226/109/472 231/115/482 227/105/473
f  227/105/473 231/115/482 232/111/483
f  227/105/465 232/111/475 223/106/466
f  228/110/474 233/116/484 229/113/477
f  228/112/476 237/117/485 233/118/486
f  229/113/477 233/116/484 234/119/487
f  229/113/478 234/119/488 230/114/479
f  230/114/479 234/119/488 235/120/489
f  230/114/480 235/120/490 231/115/481
f  231/115/481 235/120/490 236/121/491
f  231/115/482 236/121/492 232/111/483
f  232/111/483 236/121/492 237/117/493
f  232/111/475 237/117/485 228/112/476
f  233/116/484 238/122/494 234/119/487
f  233/118/486 242/123/495 238/124/496
f  234/119/487 238/122/494 239/125/497
f  234/119/488 239/125/498 235/120/489
f  235/120/489 239/125/498 240/126/499
f  235/120/490 240/126/500 236/121/491
f  236/121/491 240/126/500 241/127/501
f  236/121/492 241/127/502 237/117/493
f  237/117/493 241/127/502 242/123/503
f  237/117/485 242/123/495 233/118/486
f  238/122/494 243/128/504 239/125/497
f  238/124/496 247/129/505 243/130/506
f  239/125/497 243/128/504 244/131/507
f  239/125/498 244/131/508 240/126/499
f  240/126/499 244/131/508 245/132/509
f  240/126/500 245/132/510 241/127/501
f  241/127/501 245/132/510 246/133/511
f  241/127/502 246/133/512 242/123/503
f  242/123/503 246/133/512 247/129/513
f  242/123/495 247/129/505 238/124/496
f  243/128/504 248/134/514 244/131/507
f  243/130/506 252/135/515 248/136/516
f  244/131/507 248/134/514 249/137/517
f  244/131/508 249/137/518 245/132/509
f  245/132/509 249/137/518 250/138/519
f  245/132/510 250/138/520 246/133/511
f  246/133/511 250/138/520 251/139/521
f  246/133/512 251/139/522 247/129/513
f  247/129/513 251/139/522 252/135/523
f  247/129/505 252/135/515 243/130/506
f  248/134/514 253/177/524 249/137/517
f  249/137/518 253/177/525 250/138/519
f  250/138/520 253/177/526 251/139/521
f  251/139/522 253/177/527 252/135/523
f  252/135/515 253/177/528 248/136/516
f  254/19/529 259/25/530 255/22/531
f  254/21/532 263/26/533 259/27/534
f  255/22/531 259/25/530 260/28/535
f  255/22/536 260/28/537 256/23/538
f  256/23/538 260/28/537 261/29/539
f  256/23/540 261/29/541 257/24/542
f  257/24/542 261/29/541 262/30/543
f  257/24/544 262/30/545 258/20/546
f  258/20/546 262/30/545 263/26/547
f  258/20/548 263/26/533 254/21/532
f  259/25/530 264/31/549 260/28/535
f  259/27/534 268/32/550 264/33/551
f  260/28/535 264/31/549 265/34/552
f  260/28/537 265/34/553 261/29/539
f  261/29/539 265/34/553 266/35/554
f  261/29/541 266/35/555 262/30/543
f  262/30/543 266/35/555 267/36/556
f  262/30/545 267/36/557 263/26/547
f  263/26/547 267/36/557 268/32/558
f  263/26/533 268/32/550 259/27/534
f  264/31/549 269/37/559 265/34/552
f  264/33/551 273/38/560 269/39/561
f  265/34/552 269/37/559 270/40/562
f  265/34/553 270/40/563 266/35/554
f  266/35/554 270/40/563 271/41/564
f  266/35/555 271/41/565 267/36/556
f  267/36/556 271/41/565 272/42/566
f  267/36/557 272/42/567 268/32/558
f  268/32/558 272/42/567 273/38/568
f  268/32/550 273/38/560 264/33/551
f  269/37/559 274/43/569 270/40/562
f  269/39/561 278/44/570 274/45/571
f  270/40/562 274/43/569 275/46/572
f  270/40/563 275/46/573 271/41/564
f  271/41/564 275/46/573 276/47/574
f  271/41/565 276/47/575 272/42/566
f  272/42/566 276/47/575 277/48/576
f  272/42/567 277/48/577 273/38/568
f  273/38/568 277/48/577 278/44/578
f  273/38/560 278/44/570 269/39/561
f  274/43/569 279/49/579 275/46/572
f  274/45/571 283/50/580 279/51/581
f  275/46/572 279/49/579 280/52/582
f  275/46/573 280/52/583 276/47/574
f  276/47/574 280/52/583 281/53/584
f  276/47/575 281/53/585 277/48/576
f  277/48/576 281/53/585 282/54/586
f  277/48/577 282/54/587 278/44/578
f  278/44/578 282/54/587 283/50/588
f  278/44/570 283/50/580 274/45/571
f  279/49/579 284/56/589 280/52/582
f  279/51/581 288/57/590 284/58/591
f  280/52/582 284/56/589 285/59/592
f  280/52/583 285/59/593 281/53/584
f  281/53/584 285/59/593 286/60/594
f  281/53/585 286/60/595 282/54/586
f  282/54/586 286/60/595 287/61/596
f  282/54/587 287/61/597 283/50/588
f  283/50/588 287/61/597 288/57/598
f  283/50/580 288/57/590 279/51/581
f  284/56/589 289/62/599 285/59/592
f  284/58/591 293/63/600 289/64/601
f  285/59/592 289/62/599 290/65/602
f  285/59/593 290/65/603 286/60/594
f  286/60/594 290/65/603 291/66/604
f  286/60/595 291/66/605 287/61/596
f  287/61/596 291/66/605 292/67/606
f  287/61/597 292/67/607 288/57/598
f  288/57/598 292/67/607 293/63/608
f  288/57/590 293/63/600 284/58/591
f  289/62/599 294/68/609 290/65/602
f  289/64/601 298/69/610 294/70/611
f  290/65/602 294/68/609 295/71/612
f  290/65/603 295/71/613 291/66/604
f  291/66/604 295/71/613 296/72/614
f  291/66/605 296/72/615 292/67/606
f  292/67/606 296/72/615 297/73/616
f  292/67/607 297/73/617 293/63/608
f  293/63/608 297/73/617 298/69/618
f  293/63/600 298/69/610 289/64/601
f  294/68/609 299/74/619 295/71/612
f  294/70/611 303/75/620 299/76/621
f  295/71/612 299/74/619 300/77/622
f  295/71/613 300/77/623 296/72/614
f  296/72/614 300/77/623 301/78/624
f  296/72/615 301/78/625 297/73/616
f  297/73/616 301/78/625 302/79/626
f  297/73/617 302/79/627 298/69/618
f  298/69/618 302/79/627 303/75/628
f  298/69/610 303/75/620 294/70/611
f  299/74/619 304/80/629 300/77/622
f  299/76/621 308/81/630 304/82/631
f  300/77/622 304/80/629 305/83/632
f  300/77/623 305/83/633 301/78/624
f  301/78/624 305/83/633 306/84/634
f  301/78/625 306/84/635 302/79/626
f  302/79/626 306/84/635 307/85/636
f  302/79/627 307/85/637 303/75/628
f  303/75/628 307/85/637 308/81/638
f  303/75/620 308/81/630 299/76/621
f  304/80/629 309/86/639 305/83/632
f  304/82/631 313/87/640 309/88/641
f  305/83/632 309/86/639 310/89/642
f  305/83/633 310/89/643 306/84/634
f  306/84/634 310/89/643 311/90/644
f  306/84/635 311/90/645 307/85/636
f  307/85/636 311/90/645 312/91/646
f  307/85/637 312/91/647 308/81/638
f  308/81/638 312/91/647 313/87/648
f  308/81/630 313/87/640 304/82/631
f  309/86/639 314/92/649 310/89/642
f  309/88/641 318/93/650 314/94/651
f  310/89/642 314/92/649 315/95/652
f  310/89/643 315/95/653 311/90/644
f  311/90/644 315/95/653 316/96/654
f  311/90/645 316/96/655 312/91/646
f  312/91/646 316/96/655 317/97/656
f  312/91/647 317/97/657 313/87/648
f  313/87/648 317/97/657 318/93/658
f  313/87/640 318/93/650 309/88/641
f  314/92/649 319/98/659 315/95/652
f  314/94/651 323/99/660 319/100/661
f  315/95/652 319/98/659 320/101/662
f  315/95/653 320/101/663 316/96/654
f  316/96/654 320/101/663 321/102/664
f  316/96/655 321/102/665 317/97/656
f  317/97/656 321/102/665 322/103/666
f  317/97/657 322/103/667 318/93/658
f  318/93/658 322/103/667 323/99/668
f  318/93/650 323/99/660 314/94/651
f  319/98/659 324/104/669 320/101/662
f  319/100/661 328/105/670 324/106/671
f  320/101/662 324/104/669 325/107/672
f  320/101/663 325/107/673 321/102/664
f  321/102/664 325/107/673 326/108/674
f  321/102/665 326/108/675 322/103/666
f  322/103/666 326/108/675 327/109/676
f  322/103/667 327/109/677 323/99/668
f  323/99/668 327/109/677 328/105/678
f  323/99/660 328/105/670 319/100/661
f  324/104/669 329/178/679 325/107/672
f  325/107/673 329/178/680 326/108/674
f  326/108/675 329/178/681 327/109/676
f  327/109/677 329/178/682 328/105/678
f  328/105/670 329/178/683 324/106/671
usemtl Leaf
f  330/1/684 333/179/685 331/180/686
f  331/180/686 333/179/685 334/181/687
f  331/180/686 334/181/687 332/4/688
f  332/4/688 334/181/687 335/182/689
f  333/179/685 336/183/690 334/181/687
f  334/181/687 336/183/690 337/184/691
f  334/181/687 337/184/691 335/182/689
f  335/182/689 337/184/691 338/185/692
f  336/183/690 339/186/693 337/184/691
f  337/184/691 339/186/693 340/187/694
f  337/184/691 340/187/694 338/185/692
f  338/185/692 340/187/694 341/188/695
f  339/186/693 342/189/696 340/187/694
f  340/187/694 342/189/696 343/190/697
f  340/187/694 343/190/697 341/188/695
f  341/188/695 343/190/697 344/191/698
f  342/189/699 345/192/700 343/190/699
f  343/190/697 345/192/701 346/193/702
f  343/190/697 346/193/702 344/191/698
f  344/191/698 346/193/702 347/194/703
f  345/192/700 348/195/704 346/193/705
f  346/193/702 348/195/704 349/196/706
f  346/193/702 349/196/706 347/194/703
f  347/194/703 349/196/706 350/197/707
f  348/195/704 351/198/708 349/196/706
f  349/196/706 351/198/708 350/197/709
f  352/1/710 355/179/711 353/180/712
f  353/180/712 355/179/711 356/181/713
f  353/180/712 356/181/713 354/4/714
f  354/4/714 356/181/713 357/182/715
f  355/179/711 358/183/716 356/181/713
f  356/181/713 358/183/716 359/184/717
f  356/181/713 359/184/717 357/182/715
f  357/182/715 359/184/717 360/185/718
f  358/183/716 361/186/719 359/184/717
f  359/184/717 361/186/719 362/187/720
f  359/184/717 362/187/720 360/185/718
f  360/185/718 362/187/720 363/188/721
f  361/186/722 364/189/722 362/187/720
f  362/187/720 364/189/723 365/190/724
f  362/187/720 365/190/724 363/188/721
f  363/188/721 365/190/724 366/191/725
f  364/189/723 367/192/726 365/190/724
f  365/190/724 367/192/726 368/193/727
f  365/190/724 368/193/727 366/191/725
f  366/191/725 368/193/727 369/194/728
f  367/192/726 370/195/729 368/193/727
f  368/193/727 370/195/729 371/196/730
f  368/193/727 371/196/730 369/194/728
f  369/194/728 371/196/730 372/197/731
f  370/195/729 373/198/732 371/196/730
f  371/196/730 373/198/732 372/197/731
f  374/1/733 377/179/734 375/180/735
f  375/180/735 377/179/734 378/181/736
f  375/180/735 378/181/736 376/4/737
f  376/4/737 378/181/736 379/182/738
f  377/179/734 380/183/739 378/181/736
f  378/181/736 380/183/739 381/184/740
f  378/181/736 381/184/740 379/182/738
f  379/182/738 381/184/740 382/185/741
f  380/183/739 383/186/742 381/184/740
f  381/184/740 383/186/742 384/187/743
f  381/184/740 384/187/743 382/185/741
f  382/185/741 384/187/743 385/188/744
f  383/186/742 386/189/745 384/187/743
f  384/187/743 386/189/745 387/190/746
f  384/187/743 387/190/746 385/188/747
f  385/188/747 387/190/746 388/191/748
f  386/189/745 389/192/749 387/190/746
f  387/190/746 389/192/749 390/193/750
f  387/190/746 390/193/750 388/191/748
f  388/191/748 390/193/750 391/194/751
f  389/192/749 392/195/752 390/193/750
f  390/193/750 392/195/753 393/196/754
f  390/193/750 393/196/754 391/194/751
f  391/194/751 393/196/755 394/197/755
f  392/195/753 395/198/756 393/196/754
f  393/196/754 395/198/756 394/197/757
f  396/1/758 399/179/759 397/180/760
f  397/180/760 399/179/759 400/181/761
f  397/180/760 400/181/761 398/4/762
f  398/4/762 400/181/761 401/182/763
f  399/179/759 402/183/764 400/181/761
f  400/181/761 402/183/764 403/184/765
f  400/181/761 403/184/765 401/182/763
f  401/182/763 403/184/765 404/185/766
f  402/183/764 405/186/767 403/184/765
f  403/184/765 405/186/767 406/187/768
f  403/184/765 406/187/768 404/185/766
f  404/185/766 406/187/768 407/188/769
f  405/186/767 408/189/770 406/187/768
f  406/187/768 408/189/770 409/190/771
f  406/187/768 409/190/771 407/188/769
f  407/188/769 409/190/771 410/191/772
f  408/189/770 411/192/773 409/190/774
f  409/190/771 411/192/773 412/193/775
f  409/190/771 412/193/775 410/191/772
f  410/191/772 412/193/775 413/194/776
f  411/192/773 414/195/777 412/193/775
f  412/193/775 414/195/778 415/196/779
f  412/193/775 415/196/779 413/194/776
f  413/194/776 415/196/779 416/197/780
f  414/195/778 417/198/781 415/196/779
f  415/196/779 417/198/781 416/197/781
f  418/1/782 421/179/783 419/180/784
f  419/180/784 421/179/783 422/181/785
f  419/180/784 422/181/785 420/4/786
f  420/4/786 422/181/785 423/182/787
f  421/179/783 424/183/788 422/181/785
f  422/181/785 424/183/788 425/184/789
f  422/181/785 425/184/789 423/182/787
f  423/182/787 425/184/789 426/185/790
f  424/183/788 427/186/791 425/184/789
f  425/184/789 427/186/791 428/187/792
f  425/184/789 428/187/792 426/185/790
f  426/185/790 428/187/792 429/188/793
f  427/186/791 430/189/794 428/187/792
f  428/187/792 430/189/794 431/190/795
f  428/187/792 431/190/795 429/188/793
f  429/188/793 431/190/795 432/191/796
f  430/189/794 433/192/797 431/190/795
f  431/190/795 433/192/797 434/193/798
f  431/190/795 434/193/798 432/191/799
f  432/191/799 434/193/798 435/194/800
f  433/192/797 436/195/801 434/193/798
f  434/193/798 436/195/801 437/196/802
f  434/193/798 437/196/802 435/194/803
f  435/194/803 437/196/802 438/197/804
f  436/195/801 439/198/805 437/196/802
f  437/196/802 439/198/805 438/197/804
f  440/1/806 443/179/807 441/180/808
f  441/180/808 443/179/807 444/181/809
f  441/180/808 444/181/809 442/4/810
f  442/4/810 444/181/809 445/182/811
f  443/179/807 446/183/812 444/181/809
f  444/181/809 446/183/812 447/184/813
f  444/181/809 447/184/813 445/182/811
f  445/182/811 447/184/813 448/185/814
f  446/183/812 449/186/815 447/184/813
f  447/184/813 449/186/815 450/187/816
f  447/184/813 450/187/816 448/185/814
f  448/185/814 450/187/816 451/188/817
f  449/186/815 452/189/818 450/187/816
f  450/187/816 452/189/818 453/190/819
f  450/187/816 453/190/819 451/188/817
f  451/188/817 453/190/819 454/191/820
f  452/189/818 455/192/821 453/190/819
f  453/190/819 455/192/821 456/193/822
f  453/190/819 456/193/822 454/191/820
f  454/191/820 456/193/822 457/194/823
f  455/192/821 458/195/824 456/193/824
f  456/193/822 458/195/825 459/196/826
f  456/193/822 459/196/826 457/194/823
f  457/194/823 459/196/826 460/197/827
f  458/195/825 461/198/828 459/196/826
f  459/196/826 461/198/828 460/197/827
f  462/1/829 465/179/830 463/180/831
f  463/180/831 465/179/830 466/181/832
f  463/180/831 466/181/832 464/4/833
f  464/4/833 466/181/832 467/182/834
f  465/179/830 468/183/835 466/181/832
f  466/181/832 468/183/835 469/184/836
f  466/181/832 469/184/836 467/182/834
f  467/182/834 469/184/836 470/185/837
f  468/183/835 471/186/838 469/184/836
f  469/184/836 471/186/838 472/187/839
f  469/184/836 472/187/839 470/185/837
f  470/185/837 472/187/839 473/188/840
f  471/186/838 474/189/841 472/187/839
f  472/187/839 474/189/841 475/190/842
f  472/187/839 475/190/842 473/188/840
f  473/188/840 475/190/842 476/191/843
f  474/189/841 477/192/844 475/190/842
f  475/190/842 477/192/844 478/193/845
f  475/190/842 478/193/845 476/191/843
f  476/191/843 478/193/845 479/194/846
f  477/192/844 480/195/847 478/193/845
f  478/193/845 480/195/847 481/196/848
f  478/193/845 481/196/848 479/194/846
f  479/194/846 481/196/849 482/197/849
f  480/195/847 483/198/850 481/196/848
f  481/196/848 483/198/850 482/197/851
f  484/1/852 487/179/853 485/180/854
f  485/180/854 487/179/853 488/181/855
f  485/180/854 488/181/855 486/4/856
f  486/4/856 488/181/855 489/182/857
f  487/179/853 490/183/858 488/181/855
f  488/181/855 490/183/858 491/184/859
f  488/181/855 491/184/859 489/182/857
f  489/182/857 491/184/859 492/185/860
f  490/183/858 493/186/861 491/184/859
f  491/184/859 493/186/861 494/187/862
f  491/184/859 494/187/862 492/185/860
f  492/185/860 494/187/862 495/188/863
f  493/186/861 496/189/864 494/187/862
f  494/187/862 496/189/865 497/190/866
f  494/187/862 497/190/866 495/188/863
f  495/188/863 497/190/866 498/191/867
f  496/189/865 499/192/868 497/190/866
f  497/190/866 499/192/868 500/193/869
f  497/190/866 500/193/869 498/191/870
f  498/191/871 500/193/871 501/194/871
f  499/192/868 502/195/872 500/193/869
f  500/193/869 502/195/872 503/196/873
f  500/193/869 503/196/873 501/194/874
f  501/194/874 503/196/873 504/197/875
f  502/195/872 505/198/876 503/196/873
f  503/196/873 505/198/876 504/197/875
f  506/1/877 509/179/878 507/180/879
f  507/180/879 509/179/878 510/181/880
f  507/180/879 510/181/880 508/4/881
f  508/4/881 510/181/880 511/182/882
f  509/179/878 512/183/883 510/181/880
f  510/181/880 512/183/883 513/184/884
f  510/181/880 513/184/884 511/182/882
f  511/182/882 513/184/884 514/185/885
f  512/183/883 515/186/886 513/184/884
f  513/184/884 515/186/886 516/187/887
f  513/184/884 516/187/887 514/185/885
f  514/185/885 516/187/887 517/188/888
f  515/186/886 518/189/889 516/187/887
f  516/187/887 518/189/889 519/190/890
f  516/187/887 519/190/890 517/188/888
f  517/188/888 519/190/890 520/191/891
f  518/189/889 521/192/892 519/190/890
f  519/190/890 521/192/892 522/193/893
f  519/190/890 522/193/893 520/191/891
f  520/191/891 522/193/893 523/194/894
f  521/192/892 524/195/895 522/193/895
f  522/193/893 524/195/896 525/196/897
f  522/193/893 525/196/897 523/194/894
f  523/194/894 525/196/897 526/197/898
f  524/195/896 527/198/899 525/196/897
f  525/196/897 527/198/899 526/197/898
